<svg width="300" height="282" viewBox="0 0 300 282" xmlns="http://www.w3.org/2000/svg" xmlns:xlink="http://www.w3.org/1999/xlink"><svg id="all-1" width="18" height="18" viewBox="-1 -1 18 18" x="90" y="254"><style>.aast0{fill-rule:evenodd;clip-rule:evenodd;fill:#5e646c}</style><g id="aaXMLID_2_"><g id="aaXMLID_42_"><path id="aaXMLID_44_" class="aast0" d="M2 3v2h12V3H2zm0 6h12V7H2v2zm0 4h12v-2H2v2z"/></g></g></svg><svg id="all-2" width="18" height="18" viewBox="-1 -1 18 18" x="72" y="236"><style>.abst0{fill-rule:evenodd;clip-rule:evenodd;fill:#008bff}</style><g id="abXMLID_2_"><g id="abXMLID_42_"><path id="abXMLID_44_" class="abst0" d="M2 3v2h12V3H2zm0 6h12V7H2v2zm0 4h12v-2H2v2z"/></g></g></svg><svg id="arrow-1" width="18" height="18" viewBox="-1 -1 18 18" x="144" y="254"><style>.acst0{fill-rule:evenodd;clip-rule:evenodd;fill:#78808c}</style><g id="acXMLID_16_"><path id="acXMLID_17_" class="acst0" d="M10.5 8l-.7-.7-3.6-3.5-.7.7L9.1 8l-3.6 3.5.7.7 3.6-3.5z"/></g></svg><svg id="arrow-2" width="18" height="18" viewBox="-1 -1 18 18" x="252" y="254"><style>.adst0{fill-rule:evenodd;clip-rule:evenodd;fill:#008bff}</style><g id="adXMLID_16_"><path id="adXMLID_17_" class="adst0" d="M10.5 8l-.7-.7-3.6-3.5-.7.7L9.1 8l-3.6 3.5.7.7 3.6-3.5z"/></g></svg><svg id="arrow-812-1" viewBox="-1 -1 10 14" width="10" height="14" x="184" y="136"><style>.aest0{fill-rule:evenodd;clip-rule:evenodd;fill:#7d848d}</style><g id="aeXMLID_2_"><g id="aeXMLID_48_"><path id="aeXMLID_49_" class="aest0" d="M8 6L6.5 4.5 2 0 .5 1.5 5 6 .5 10.5 2 12l4.5-4.5z"/></g></g></svg><svg id="arrow-812-2" viewBox="-1 -1 10 14" width="10" height="14" x="282" y="213"><style>.afst0{fill-rule:evenodd;clip-rule:evenodd;fill:#00a4ff}</style><g id="afXMLID_2_"><g id="afXMLID_48_"><path id="afXMLID_49_" class="afst0" d="M8 6L6.5 4.5 2 0 .5 1.5 5 6 .5 10.5 2 12l4.5-4.5z"/></g></g></svg><svg width="14" height="10" viewBox="-1 -1 14 10" id="arrow-double" x="42" y="272"><title>Group 9</title><path d="M3.547 4L0 1.031 1.227 0 6 4 1.227 8 0 6.969zm6 0L6 1.031 7.227 0 12 4 7.227 8 6 6.969z" fill="#7C848E" fill-rule="evenodd" opacity=".9"/></svg><svg width="14" height="10" viewBox="-1 -1 14 10" id="arrow-double-active" x="56" y="272"><title>Group 9</title><path d="M3.547 4L0 1.031 1.227 0 6 4 1.227 8 0 6.969zm6 0L6 1.031 7.227 0 12 4 7.227 8 6 6.969z" fill="#00A4FF" fill-rule="evenodd" opacity=".9"/></svg><svg width="14" height="10" viewBox="-1 -1 14 10" id="arrow-double-light" x="70" y="272"><title>Group 9</title><path d="M3.547 4L0 1.031 1.227 0 6 4 1.227 8 0 6.969zm6 0L6 1.031 7.227 0 12 4 7.227 8 6 6.969z" fill="#999" fill-rule="evenodd" opacity=".9"/></svg><svg width="14" height="9" viewBox="-1 -1 14 9" id="arrow-down" x="84" y="272"><title>Shape Copy 5</title><path d="M1.41 0L6 4.327 10.59 0 12 1.332 6 7 0 1.332z" fill="#999" fill-rule="evenodd"/></svg><svg id="arrow-down" width="18" height="18" viewBox="-1 -1 18 18" x="264" y="108"><style>.akst0{fill-rule:evenodd;clip-rule:evenodd;fill:#7f7f7f}</style><path class="akst0" d="M13.6 4L8 9.3 2.4 4 1 5.3 8 12l7-6.7z"/></svg><svg width="18" height="18" viewBox="-1 -1 18 18" id="arrow-down-#00a4ff" x="264" y="180"><style>.alst0{fill-rule:evenodd;clip-rule:evenodd;fill:#00a4ff}</style><path class="alst0" d="M13.6 4L8 9.3 2.4 4 1 5.3 8 12l7-6.7z"/></svg><svg width="8" height="10" viewBox="-1 -1 8 10" id="arrow-s" x="291" y="198"><title>Combined Shape Copy 9</title><path d="M3.547 4L0 1.031 1.227 0 6 4 1.227 8 0 6.969z" fill="#7C848E" fill-rule="evenodd" opacity=".9"/></svg><svg width="8" height="10" viewBox="-1 -1 8 10" id="arrow-s-active" x="292" y="213"><title>Combined Shape Copy 9</title><path d="M3.547 4L0 1.031 1.227 0 6 4 1.227 8 0 6.969z" fill="#00A4FF" fill-rule="evenodd" opacity=".9"/></svg><svg width="8" height="10" viewBox="-1 -1 8 10" id="arrow-s-curr" x="194" y="136"><title>Combined Shape Copy 9</title><path d="M3.547 4L0 1.031 1.227 0 6 4 1.227 8 0 6.969z" fill="#FFF" fill-rule="evenodd" opacity=".9"/></svg><svg width="14" height="10" viewBox="-1 -1 14 10" id="arrow-s-db" x="28" y="272"><title>Artboard</title><path d="M3.547 4L0 1.031 1.227 0 6 4 1.227 8 0 6.969zm6 0L6 1.031 7.227 0 12 4 7.227 8 6 6.969z" fill="#7C848E" fill-rule="evenodd" opacity=".9"/></svg><svg width="14" height="10" viewBox="-1 -1 14 10" id="arrow-s-db-active" x="14" y="272"><title>Artboard</title><path d="M3.547 4L0 1.031 1.227 0 6 4 1.227 8 0 6.969zm6 0L6 1.031 7.227 0 12 4 7.227 8 6 6.969z" fill="#00A4FF" fill-rule="evenodd" opacity=".9"/></svg><svg width="14" height="10" viewBox="-1 -1 14 10" id="arrow-s-db-curr" y="272"><title>Artboard</title><path d="M3.547 4L0 1.031 1.227 0 6 4 1.227 8 0 6.969zm6 0L6 1.031 7.227 0 12 4 7.227 8 6 6.969z" fill="#fff" fill-rule="evenodd" opacity=".9"/></svg><svg id="arrow-up" width="18" height="18" viewBox="-1 -1 18 18" x="282"><style>.asst0{fill-rule:evenodd;clip-rule:evenodd;fill:#7f7f7f}</style><path class="asst0" d="M13.6 12L8 6.7 2.4 12 1 10.7 8 4l7 6.7z"/></svg><svg width="18" height="18" viewBox="-1 -1 18 18" id="arrow-up-#00a4ff" x="282" y="18"><style>.atst0{fill-rule:evenodd;clip-rule:evenodd;fill:#00a4ff}</style><path class="atst0" d="M13.6 12L8 6.7 2.4 12 1 10.7 8 4l7 6.7z"/></svg><svg id="ask-1616" data-name="图层 1" width="18" height="18" viewBox="-1 -1 18 18" x="282" y="162"><defs><style>.aucls-1{fill:#7d848d}</style></defs><title>2</title><path class="aucls-1" d="M8 1.75a6 6 0 0 1 6.25 5.75A6 6 0 0 1 8 13.25 5.2 5.2 0 0 1 6.11 13l-.63-.24-.63.24-1.1.44v-1.7l-.46-.5A5.48 5.48 0 0 1 1.75 7.5 6 6 0 0 1 8 1.75M8 0a7.8 7.8 0 0 0-8 7.5 7.23 7.23 0 0 0 2 4.9V16l3.5-1.4A6.9 6.9 0 0 0 8 15a7.8 7.8 0 0 0 8-7.5A7.8 7.8 0 0 0 8 0z"/><path class="aucls-1" d="M9.9 3.94a3.49 3.49 0 0 0-2.09-.6 3 3 0 0 0-1.62.43A2.64 2.64 0 0 0 5.06 6v.13h1.8V6a1.48 1.48 0 0 1 .24-.79.84.84 0 0 1 .78-.35.89.89 0 0 1 .77.28 1.14 1.14 0 0 1 .22.67 1 1 0 0 1-.19.58 1.24 1.24 0 0 1-.28.29L8 7a2.29 2.29 0 0 0-.76.85A3.87 3.87 0 0 0 7.06 9h1.71a1.93 1.93 0 0 1 .05-.43 1 1 0 0 1 .37-.5l.38-.29a4.09 4.09 0 0 0 .81-.78 2.07 2.07 0 0 0 .37-1.25 2.11 2.11 0 0 0-.85-1.81zM7.02 10h1.86v1.58H7.02z"/></svg><svg version="undefined" width="18" height="18" viewBox="-1 -1 18 18" id="ask-1616-#00a4ff" x="282" y="180"><defs><style>.avcls-1{fill:#00a4ff}</style></defs><path class="avcls-1" d="M8 1.75a6 6 0 0 1 6.25 5.75A6 6 0 0 1 8 13.25 5.2 5.2 0 0 1 6.11 13l-.63-.24-.63.24-1.1.44v-1.7l-.46-.5A5.48 5.48 0 0 1 1.75 7.5 6 6 0 0 1 8 1.75M8 0a7.8 7.8 0 0 0-8 7.5 7.23 7.23 0 0 0 2 4.9V16l3.5-1.4A6.9 6.9 0 0 0 8 15a7.8 7.8 0 0 0 8-7.5A7.8 7.8 0 0 0 8 0z"/><path class="avcls-1" d="M9.9 3.94a3.49 3.49 0 0 0-2.09-.6 3 3 0 0 0-1.62.43A2.64 2.64 0 0 0 5.06 6v.13h1.8V6a1.48 1.48 0 0 1 .24-.79.84.84 0 0 1 .78-.35.89.89 0 0 1 .77.28 1.14 1.14 0 0 1 .22.67 1 1 0 0 1-.19.58 1.24 1.24 0 0 1-.28.29L8 7a2.29 2.29 0 0 0-.76.85A3.87 3.87 0 0 0 7.06 9h1.71a1.93 1.93 0 0 1 .05-.43 1 1 0 0 1 .37-.5l.38-.29a4.09 4.09 0 0 0 .81-.78 2.07 2.07 0 0 0 .37-1.25 2.11 2.11 0 0 0-.85-1.81zM7.02 10h1.86v1.58H7.02z"/></svg><svg id="ask-1617" data-name="图层 1" width="18" height="18" viewBox="-1 -1 18 18" x="58" y="216"><defs><style>.awcls-1{fill:#fff}</style></defs><title>2</title><path class="awcls-1" d="M8 1.75a6 6 0 0 1 6.25 5.75A6 6 0 0 1 8 13.25 5.2 5.2 0 0 1 6.11 13l-.63-.24-.63.24-1.1.44v-1.7l-.46-.5A5.48 5.48 0 0 1 1.75 7.5 6 6 0 0 1 8 1.75M8 0a7.8 7.8 0 0 0-8 7.5 7.23 7.23 0 0 0 2 4.9V16l3.5-1.4A6.9 6.9 0 0 0 8 15a7.8 7.8 0 0 0 8-7.5A7.8 7.8 0 0 0 8 0z"/><path class="awcls-1" d="M9.9 3.94a3.49 3.49 0 0 0-2.09-.6 3 3 0 0 0-1.62.43A2.64 2.64 0 0 0 5.06 6v.13h1.8V6a1.48 1.48 0 0 1 .24-.79.84.84 0 0 1 .78-.35.89.89 0 0 1 .77.28 1.14 1.14 0 0 1 .22.67 1 1 0 0 1-.19.58 1.24 1.24 0 0 1-.28.29L8 7a2.29 2.29 0 0 0-.76.85A3.87 3.87 0 0 0 7.06 9h1.71a1.93 1.93 0 0 1 .05-.43 1 1 0 0 1 .37-.5l.38-.29a4.09 4.09 0 0 0 .81-.78 2.07 2.07 0 0 0 .37-1.25 2.11 2.11 0 0 0-.85-1.81zM7.02 10h1.86v1.58H7.02z"/></svg><svg data-name="图层 1" width="18" height="18" viewBox="-1 -1 18 18" id="c" x="76" y="216"><title>复-常态</title><path fill="#fff" d="M.5.5h15v15H.5z"/><path d="M15 1v14H1V1h14m1-1H0v16h16V0z" fill="#ddd"/></svg><svg data-name="图层 1" width="18" height="18" viewBox="-1 -1 18 18" id="c-c" x="94" y="216"><title>复-选中</title><path d="M0 0h16v16H0z" fill="#00a4ff"/><path fill="#fff" d="M13.8 5.4L12.5 4l-6 6.3-2.4-2.5-1.3 1.4 2.4 2.4L6.5 13l1.3-1.4 6-6.2z"/></svg><svg data-name="图层 1" width="18" height="18" viewBox="-1 -1 18 18" id="c-d" x="166" y="216"><title>复-不可点</title><path fill="#f7f8fa" d="M.5.5h15v15H.5z"/><path d="M15 1v14H1V1h14m1-1H0v16h16V0z" fill="#ddd"/></svg><svg data-name="图层 1" width="18" height="18" viewBox="-1 -1 18 18" id="c-d-c" x="90" y="236"><title>复-不可点02</title><path fill="#f7f8fa" d="M.5.5h15v15H.5z"/><path d="M15 1v14H1V1h14m1-1H0v16h16z" fill="#ddd"/><path fill="#ddd" d="M13.8 5.4L12.5 4l-6 6.3-2.4-2.5-1.3 1.4 2.4 2.4L6.5 13l1.3-1.4 6-6.2z"/></svg><svg id="close" viewBox="-1 -1 18 18" width="18" height="18" x="108" y="236"><style>.bbst0{fill:#fff}</style><path class="bbst0" d="M13.5 14.5c-.3 0-.5-.1-.7-.3l-11-11c-.4-.4-.4-1 0-1.4s1-.4 1.4 0l11 11c.4.4.4 1 0 1.4-.2.2-.4.3-.7.3z"/><path class="bbst0" d="M2.5 14.5c-.3 0-.5-.1-.7-.3-.4-.4-.4-1 0-1.4l11-11c.4-.4 1-.4 1.4 0s.4 1 0 1.4l-11 11c-.2.2-.4.3-.7.3z"/></svg><svg id="close" viewBox="-1 -1 18 18" width="18" height="18" x="180" y="236"><style>.bcst0{fill:#fff}</style><path class="bcst0" d="M13.5 14.5c-.3 0-.5-.1-.7-.3l-11-11c-.4-.4-.4-1 0-1.4s1-.4 1.4 0l11 11c.4.4.4 1 0 1.4-.2.2-.4.3-.7.3z"/><path class="bcst0" d="M2.5 14.5c-.3 0-.5-.1-.7-.3-.4-.4-.4-1 0-1.4l11-11c.4-.4 1-.4 1.4 0s.4 1 0 1.4l-11 11c-.2.2-.4.3-.7.3z"/></svg><svg id="close-1" viewBox="-1 -1 18 18" width="18" height="18" x="198" y="236"><style>.bdst0{fill:#0085f2}</style><path class="bdst0" d="M13.5 14.5c-.3 0-.5-.1-.7-.3l-11-11c-.4-.4-.4-1 0-1.4s1-.4 1.4 0l11 11c.4.4.4 1 0 1.4-.2.2-.4.3-.7.3z"/><path class="bdst0" d="M2.5 14.5c-.3 0-.5-.1-.7-.3-.4-.4-.4-1 0-1.4l11-11c.4-.4 1-.4 1.4 0s.4 1 0 1.4l-11 11c-.2.2-.4.3-.7.3z"/></svg><svg id="close-1" viewBox="-1 -1 18 18" width="18" height="18" x="216" y="236"><style>.best0{fill:#0085f2}</style><path class="best0" d="M13.5 14.5c-.3 0-.5-.1-.7-.3l-11-11c-.4-.4-.4-1 0-1.4s1-.4 1.4 0l11 11c.4.4.4 1 0 1.4-.2.2-.4.3-.7.3z"/><path class="best0" d="M2.5 14.5c-.3 0-.5-.1-.7-.3-.4-.4-.4-1 0-1.4l11-11c.4-.4 1-.4 1.4 0s.4 1 0 1.4l-11 11c-.2.2-.4.3-.7.3z"/></svg><svg width="18" height="18" viewBox="-298 388 18 18" id="close-2424-inline" x="234" y="236"><path fill="#FFF" d="M-283.5 403.5c-.3 0-.5-.1-.7-.3l-11-11c-.4-.4-.4-1 0-1.4.4-.4 1-.4 1.4 0l11 11c.4.4.4 1 0 1.4-.2.2-.4.3-.7.3z"/><path fill="#FFF" d="M-294.5 403.5c-.3 0-.5-.1-.7-.3-.4-.4-.4-1 0-1.4l11-11c.4-.4 1-.4 1.4 0 .4.4.4 1 0 1.4l-11 11c-.2.2-.4.3-.7.3z"/></svg><svg id="close-gray" viewBox="-1 -1 18 18" width="18" height="18" x="264"><style>.bgst0{fill:#999}</style><path class="bgst0" d="M13.5 14.5c-.3 0-.5-.1-.7-.3l-11-11c-.4-.4-.4-1 0-1.4s1-.4 1.4 0l11 11c.4.4.4 1 0 1.4-.2.2-.4.3-.7.3z"/><path class="bgst0" d="M2.5 14.5c-.3 0-.5-.1-.7-.3-.4-.4-.4-1 0-1.4l11-11c.4-.4 1-.4 1.4 0s.4 1 0 1.4l-11 11c-.2.2-.4.3-.7.3z"/></svg><svg width="18" height="18" viewBox="-1 -1 18 18" id="close-icon" x="264" y="36"><path fill="#666" fill-rule="evenodd" d="M8.713 8L14 13.287l-.713.713L8 8.713 2.713 14 2 13.287 7.287 8 2 2.713 2.713 2 8 7.287 13.287 2l.713.713z"/></svg><svg id="csdn" viewBox="-1 -1 18 18" width="18" height="18" x="264" y="54"><style>.bist0{fill-rule:evenodd;clip-rule:evenodd;fill:#fff}</style><path id="biXMLID_2_" class="bist0" d="M15 1.8l-1 3s-8.5-1.9-9.1 3c-.1 1.3.6 4.5 8.1 3-.3 1.4-1 3-1 3S4.2 15 1.8 11.1c-2.4-4 1.1-7.2 3.4-8.2 2-.9 4.9-1.7 9.8-1.1z"/></svg><svg id="doc-1616" data-name="图层 1" width="18" height="18" viewBox="-1 -1 18 18" x="264" y="72"><defs><style>.bjcls-1{fill:none}.cls-2{clip-path:url(#bjclip-path)}.bjcls-3{fill:#7c848e}</style><clipPath id="bjclip-path"><circle class="bjcls-1" cx="363" cy="96" r="35"/></clipPath></defs><title>icon</title><path class="bjcls-3" d="M10 4H6a1 1 0 0 0-1 1v6a1 1 0 0 0 2 0v-1h3a1 1 0 0 0 1-1V5a1 1 0 0 0-1-1zM9 8H7V6h2zm4-8H2a2 2 0 0 0-2 2v12a2 2 0 0 0 2 2h12a2 2 0 0 0 2-2V3zm1 14H2V2h10l2 2z"/></svg><svg width="18" height="18" viewBox="-1 -1 18 18" id="error-icon" x="264" y="90"><g fill="#E54545"><path d="M8 1a7 7 0 1 0 0 14A7 7 0 0 0 8 1zm0 12c-2.757 0-5-2.243-5-5s2.243-5 5-5 5 2.243 5 5-2.243 5-5 5z"/><path d="M7 4h2v5H7zm0 6h2v2H7z"/></g></svg><svg id="event" width="20" height="20" viewBox="-1 -1 20 20" x="238" y="92"><style>.blst0{fill:#fff}</style><path class="blst0" d="M13.1 2c.2 0 .5 0 .7.3.3.3.3.7.2 1l-.2.7h-3.1l1.7-1.7c.2-.3.5-.3.7-.3M4.9 2c.2 0 .5 0 .7.3L7.3 4H4.2L4 3.3c-.1-.3-.1-.7.2-1 .3-.3.6-.3.7-.3m8.2-2c-.8 0-1.5.3-2.1.9L9 2.8 7.1.9C6.5.3 5.7 0 4.9 0c-.7 0-1.5.3-2.1.9-.8.8-1.1 2-.7 3.1H0v7h1v7h16v-7h1V4h-2.1c.4-1.1.1-2.3-.7-3.1-.6-.6-1.4-.9-2.1-.9zM2 9V6h14v3H2zm8 7v-5h5v5h-5zm-7 0v-5h5v5H3z"/></svg><svg id="facebook" viewBox="-1 -1 18 18" width="18" height="18" x="264" y="126"><style>.bmst0{fill-rule:evenodd;clip-rule:evenodd;fill:#fff}</style><path id="bmXMLID_3_" class="bmst0" d="M13 2H3c-.6 0-1 .4-1 1v10c0 .6.4 1 1 1h5V9H7V7h1V6c0-.5.1-2 2-2h2v2h-1c-.3 0-1 0-1 .2V7h2l-.8 2H10v5h3c.6 0 1-.4 1-1V3c0-.6-.4-1-1-1z"/></svg><svg id="feedback" width="20" height="20" viewBox="-1 -1 20 20" x="238" y="192"><style>.bnst0{fill:#666}</style><g id="bnXMLID_72_"><path id="bnXMLID_78_" class="bnst0" d="M5 13h4l8.7-8.7c.4-.4.4-1 0-1.4L15.1.3c-.2-.2-.5-.3-.7-.3-.3 0-.5.1-.7.3L5 9v4zm9.4-10.6l1.2 1.2-1 1-1.2-1.2 1-1zM7 9.8l4.4-4.5 1.2 1.2L8.2 11H7V9.8zm9 6.2H2V2h7V0H0v18h18V9h-2v7z"/></g></svg><svg id="fs-icon-1" width="34" height="34" viewBox="-1 -1 34 34" x="102" y="152"><style>.bost0{fill-rule:evenodd;clip-rule:evenodd;fill:#fff}</style><g id="boXMLID_15_"><path id="boXMLID_29_" class="bost0" d="M16 0C7.2 0 0 7.2 0 16s7.2 16 16 16 16-7.2 16-16S24.8 0 16 0zm0 30C8.3 30 2 23.7 2 16S8.3 2 16 2s14 6.3 14 14-6.3 14-14 14z"/><path id="boXMLID_30_" class="bost0" d="M22.5 12.3l-1.4-.5c-.3.9-.6 1.8-.9 2.6h-1.5c-.3-1-.6-1.9-.9-2.6l-1.4.5.9 2.1h-1.9v1.5h8.3v-1.5h-1.8c.1-.6.4-1.3.6-2.1z"/><path id="boXMLID_31_" class="bost0" d="M23.1 10H20c-.2-.6-.4-1.1-.5-1.5l-1.5.3c.2.4.4.8.6 1.3h-3.1v1.4h7.7V10z"/><path id="boXMLID_32_" class="bost0" d="M10.6 10.5h2.8v8.9h1.3V9.2H9.2v10.5h1.4z"/><path id="boXMLID_33_" class="bost0" d="M12.6 11.6h-1.2v5.2c0 1.4-.2 2.5-.6 3.4-.4.8-1.1 1.5-2.3 2l.8 1.2c1.1-.5 1.9-1.3 2.4-2.3.5-1.1.8-2.5.8-4.3v-5.2z"/><path id="boXMLID_34_" class="bost0" d="M12.3 20.7c.9.9 1.6 1.8 2.1 2.6l1-1c-.6-.8-1.4-1.7-2.2-2.5l-.9.9z"/><path id="boXMLID_37_" class="bost0" d="M16.1 23.4h1.4v-.8h3.6v.8h1.4v-6.3H16v6.3zm1.5-4.9h3.6v2.6h-3.6v-2.6z"/></g></svg><svg id="fs-icon-1-h" width="34" height="34" viewBox="-1 -1 34 34" y="152"><style>.bpst0{fill-rule:evenodd;clip-rule:evenodd;fill:#00a4ff}</style><g id="bpXMLID_15_"><path id="bpXMLID_29_" class="bpst0" d="M16 0C7.2 0 0 7.2 0 16s7.2 16 16 16 16-7.2 16-16S24.8 0 16 0zm0 30C8.3 30 2 23.7 2 16S8.3 2 16 2s14 6.3 14 14-6.3 14-14 14z"/><path id="bpXMLID_30_" class="bpst0" d="M22.5 12.3l-1.4-.5c-.3.9-.6 1.8-.9 2.6h-1.5c-.3-1-.6-1.9-.9-2.6l-1.4.5.9 2.1h-1.9v1.5h8.3v-1.5h-1.8c.1-.6.4-1.3.6-2.1z"/><path id="bpXMLID_31_" class="bpst0" d="M23.1 10H20c-.2-.6-.4-1.1-.5-1.5l-1.5.3c.2.4.4.8.6 1.3h-3.1v1.4h7.7V10z"/><path id="bpXMLID_32_" class="bpst0" d="M10.6 10.5h2.8v8.9h1.3V9.2H9.2v10.5h1.4z"/><path id="bpXMLID_33_" class="bpst0" d="M12.6 11.6h-1.2v5.2c0 1.4-.2 2.5-.6 3.4-.4.8-1.1 1.5-2.3 2l.8 1.2c1.1-.5 1.9-1.3 2.4-2.3.5-1.1.8-2.5.8-4.3v-5.2z"/><path id="bpXMLID_34_" class="bpst0" d="M12.3 20.7c.9.9 1.6 1.8 2.1 2.6l1-1c-.6-.8-1.4-1.7-2.2-2.5l-.9.9z"/><path id="bpXMLID_37_" class="bpst0" d="M16.1 23.4h1.4v-.8h3.6v.8h1.4v-6.3H16v6.3zm1.5-4.9h3.6v2.6h-3.6v-2.6z"/></g></svg><svg id="fs-icon-2" width="34" height="34" viewBox="-1 -1 34 34" x="68" y="118"><style>.bqst0{fill-rule:evenodd;clip-rule:evenodd;fill:#fff}</style><path class="bqst0" d="M16 32C7.2 32 0 24.8 0 16S7.2 0 16 0s16 7.2 16 16-7.2 16-16 16zm0-30C8.3 2 2 8.3 2 16s6.3 14 14 14 14-6.3 14-14S23.7 2 16 2zm5 13v2h-4v2h4v2h-4v3h-2v-3h-4v-2h4v-2h-4v-2h3l-4-6h2.3l3.7 5.4L19.7 9H22l-4 6h3z"/></svg><svg id="fs-icon-2-h" width="34" height="34" viewBox="-1 -1 34 34" x="102" y="118"><style>.brst0{fill-rule:evenodd;clip-rule:evenodd;fill:#00a4ff}</style><path class="brst0" d="M16 32C7.2 32 0 24.8 0 16S7.2 0 16 0s16 7.2 16 16-7.2 16-16 16zm0-30C8.3 2 2 8.3 2 16s6.3 14 14 14 14-6.3 14-14S23.7 2 16 2zm5 13v2h-4v2h4v2h-4v3h-2v-3h-4v-2h4v-2h-4v-2h3l-4-6h2.3l3.7 5.4L19.7 9H22l-4 6h3z"/></svg><svg id="fs-icon-3" width="34" height="34" viewBox="-1 -1 34 34" x="136" y="118"><style>.bsst0,.bsst1{fill:#fff}.bsst1{fill-rule:evenodd;clip-rule:evenodd}</style><g id="bsXMLID_54_"><path id="bsXMLID_55_" class="bsst0" d="M16 0C7.2 0 0 7.2 0 16s7.2 16 16 16 16-7.2 16-16S24.8 0 16 0zm0 30C8.3 30 2 23.7 2 16S8.3 2 16 2s14 6.3 14 14-6.3 14-14 14z"/></g><g id="bsXMLID_26_"><g id="bsXMLID_91_"><path id="bsXMLID_92_" class="bsst1" d="M23.1 16.1l.7-1.3c-2.2-.3-4.2-.8-5.9-1.4 1.3-.8 2.5-1.8 3.4-2.9V9.2h-6.4l.6-.9-1.6-.3c-1.2 1.7-2.7 3-4.4 4l1 1.2c.8-.5 1.5-1 2.2-1.6.6.6 1.4 1.2 2.2 1.7-1.8.7-3.8 1.2-6.1 1.5l.7 1.3c.5-.1 1-.2 1.6-.3V23h1.5v-.6h7.6v.6h1.5v-7.2H11.3c1.8-.4 3.5-1 5-1.7 1.9.9 4.2 1.6 6.8 2zm-6.1 1h3.1v1.4H17v-1.4zm0 2.6h3.1v1.4H17v-1.4zm-4.6-2.6h3.1v1.4h-3.1v-1.4zm0 2.6h3.1v1.4h-3.1v-1.4zm1.1-9l.2-.2h5.5c-.8.8-1.8 1.5-3 2.1-1-.5-1.9-1.1-2.7-1.9z"/></g></g></svg><svg id="fs-icon-3-h" width="34" height="34" viewBox="-1 -1 34 34" x="170"><style>.btst0,.btst1{fill:#00a4ff}.btst1{fill-rule:evenodd;clip-rule:evenodd}</style><g id="btXMLID_60_"><path id="btXMLID_61_" class="btst0" d="M16 0C7.2 0 0 7.2 0 16s7.2 16 16 16 16-7.2 16-16S24.8 0 16 0zm0 30C8.3 30 2 23.7 2 16S8.3 2 16 2s14 6.3 14 14-6.3 14-14 14z"/></g><g id="btXMLID_26_"><g id="btXMLID_91_"><path id="btXMLID_92_" class="btst1" d="M23.1 16.1l.7-1.3c-2.2-.3-4.2-.8-5.9-1.4 1.3-.8 2.5-1.8 3.4-2.9V9.2h-6.4l.6-.9-1.6-.3c-1.2 1.7-2.7 3-4.4 4l1 1.2c.8-.5 1.5-1 2.2-1.6.6.6 1.4 1.2 2.2 1.7-1.8.7-3.8 1.2-6.1 1.5l.7 1.3c.5-.1 1-.2 1.6-.3V23h1.5v-.6h7.6v.6h1.5v-7.2H11.3c1.8-.4 3.5-1 5-1.7 1.9.9 4.2 1.6 6.8 2zm-6.1 1h3.1v1.4H17v-1.4zm0 2.6h3.1v1.4H17v-1.4zm-4.6-2.6h3.1v1.4h-3.1v-1.4zm0 2.6h3.1v1.4h-3.1v-1.4zm1.1-9l.2-.2h5.5c-.8.8-1.8 1.5-3 2.1-1-.5-1.9-1.1-2.7-1.9z"/></g></g></svg><svg id="fs-icon-4" width="34" height="34" viewBox="-1 -1 34 34" x="170" y="34"><style>.bust0{fill-rule:evenodd;clip-rule:evenodd;fill:#fff}</style><path class="bust0" d="M16 32C7.2 32 0 24.8 0 16S7.2 0 16 0s16 7.2 16 16-7.2 16-16 16zm0-30C8.3 2 2 8.3 2 16s6.3 14 14 14 14-6.3 14-14S23.7 2 16 2zm1.7 22c-6.3 0-5.9-4-5.9-4 0-2.3 1.3-4.3 3.2-5.3-.5-.6-.8-1.3-.8-2.2 0-1.9 1.5-3.5 3.5-3.5 1.9 0 3.5 1.6 3.5 3.5 0 .8-.3 1.6-.8 2.2 1.9 1 3.2 3 3.2 5.3.1 0 .3 4-5.9 4zm0-13c-.8 0-1.5.7-1.5 1.5s.7 1.5 1.5 1.5 1.5-.7 1.5-1.5-.7-1.5-1.5-1.5zm4 9c0-2.2-1.8-4-3.9-4-2.2 0-3.9 1.8-3.9 4 0 0-.3 2 3.9 2 4 0 3.9-2 3.9-2zM12.5 9.7c-.5.6-.8 1.4-.8 2.2 0 1 .4 1.8 1 2.5-.8.4-2 1-2.4 1.6l-.4.4c-.5.9-.9 1.6-.9 3.3 0 0 0 .3.1.7-1.2-.9-1.2-2.2-1.2-2.2 0-1.9 1-3.5 2.6-4.3-.4-.5-.6-1.1-.6-1.7 0-1.5 1.2-2.8 2.8-2.8h.3c-.1.1-.2.1-.2.2-.2 0-.2.1-.3.1z"/></svg><svg id="fs-icon-4-h" width="34" height="34" viewBox="-1 -1 34 34" x="170" y="68"><style>.bvst0{fill-rule:evenodd;clip-rule:evenodd;fill:#00a4ff}</style><path class="bvst0" d="M16 32C7.2 32 0 24.8 0 16S7.2 0 16 0s16 7.2 16 16-7.2 16-16 16zm0-30C8.3 2 2 8.3 2 16s6.3 14 14 14 14-6.3 14-14S23.7 2 16 2zm1.7 22c-6.3 0-5.9-4-5.9-4 0-2.3 1.3-4.3 3.2-5.3-.5-.6-.8-1.3-.8-2.2 0-1.9 1.5-3.5 3.5-3.5 1.9 0 3.5 1.6 3.5 3.5 0 .8-.3 1.6-.8 2.2 1.9 1 3.2 3 3.2 5.3.1 0 .3 4-5.9 4zm0-13c-.8 0-1.5.7-1.5 1.5s.7 1.5 1.5 1.5 1.5-.7 1.5-1.5-.7-1.5-1.5-1.5zm4 9c0-2.2-1.8-4-3.9-4-2.2 0-3.9 1.8-3.9 4 0 0-.3 2 3.9 2 4 0 3.9-2 3.9-2zM12.5 9.7c-.5.6-.8 1.4-.8 2.2 0 1 .4 1.8 1 2.5-.8.4-2 1-2.4 1.6l-.4.4c-.5.9-.9 1.6-.9 3.3 0 0 0 .3.1.7-1.2-.9-1.2-2.2-1.2-2.2 0-1.9 1-3.5 2.6-4.3-.4-.5-.6-1.1-.6-1.7 0-1.5 1.2-2.8 2.8-2.8h.3c-.1.1-.2.1-.2.2-.2 0-.2.1-.3.1z"/></svg><svg id="fs-icon-5" width="34" height="34" viewBox="-1 -1 34 34" x="170" y="102"><style>.bwst0{fill:#fff}</style><g id="bwXMLID_68_"><path id="bwXMLID_69_" class="bwst0" d="M16 0C7.2 0 0 7.2 0 16s7.2 16 16 16 16-7.2 16-16S24.8 0 16 0zm0 30C8.3 30 2 23.7 2 16S8.3 2 16 2s14 6.3 14 14-6.3 14-14 14zm3.4-12.8c-.8 0-1.3.4-2 .4s-3.5-2.9-3.5-3.7c0-.8.7-.6.7-1.5 0-.6-2.4-4.5-3.3-4.5-.9.1-3.3 2-3.3 3.5C8 15.8 15.8 24 20.7 24c1.4 0 3.3-1.7 3.3-3.4 0-.6-3.8-3.3-4.6-3.4zm2.3 4.5c-.2.2-.4.3-.6.4-.1.1-.3.1-.4.1-.9 0-2-.4-3.3-1.1-1.2-.7-2.5-1.8-3.7-3-1.2-1.2-2.2-2.5-2.9-3.7-.4-.6-.6-1.2-.8-1.7-.2-.5-.3-.9-.3-1.3 0 0 0-.2.1-.3.1-.2.3-.4.5-.6.2-.2.5-.4.7-.5 0 .1.1.1.1.2.2.3.5.6.7 1 .4.6.7 1.2.8 1.5 0 .1-.1.1-.1.2-.2.4-.4.7-.4 1.5 0 .5.2 1.1.8 1.8.3.4.7.9 1.2 1.4.5.5 1 .9 1.4 1.2.7.5 1.2.8 1.8.8.7 0 1.2-.3 1.6-.5.1-.1.2 0 .3.1.3.1.8.4 1.5 1 .7.5 1.1.8 1.3 1 .1.1-.1.3-.3.5z"/></g></svg><svg id="fs-icon-5-h" width="34" height="34" viewBox="-1 -1 34 34" y="118"><style>.bxst0{fill:#00a4ff}</style><g id="bxXMLID_68_"><path id="bxXMLID_69_" class="bxst0" d="M16 0C7.2 0 0 7.2 0 16s7.2 16 16 16 16-7.2 16-16S24.8 0 16 0zm0 30C8.3 30 2 23.7 2 16S8.3 2 16 2s14 6.3 14 14-6.3 14-14 14zm3.4-12.8c-.8 0-1.3.4-2 .4s-3.5-2.9-3.5-3.7c0-.8.7-.6.7-1.5 0-.6-2.4-4.5-3.3-4.5-.9.1-3.3 2-3.3 3.5C8 15.8 15.8 24 20.7 24c1.4 0 3.3-1.7 3.3-3.4 0-.6-3.8-3.3-4.6-3.4zm2.3 4.5c-.2.2-.4.3-.6.4-.1.1-.3.1-.4.1-.9 0-2-.4-3.3-1.1-1.2-.7-2.5-1.8-3.7-3-1.2-1.2-2.2-2.5-2.9-3.7-.4-.6-.6-1.2-.8-1.7-.2-.5-.3-.9-.3-1.3 0 0 0-.2.1-.3.1-.2.3-.4.5-.6.2-.2.5-.4.7-.5 0 .1.1.1.1.2.2.3.5.6.7 1 .4.6.7 1.2.8 1.5 0 .1-.1.1-.1.2-.2.4-.4.7-.4 1.5 0 .5.2 1.1.8 1.8.3.4.7.9 1.2 1.4.5.5 1 .9 1.4 1.2.7.5 1.2.8 1.8.8.7 0 1.2-.3 1.6-.5.1-.1.2 0 .3.1.3.1.8.4 1.5 1 .7.5 1.1.8 1.3 1 .1.1-.1.3-.3.5z"/></g></svg><svg id="github" viewBox="-38 4 18 18" width="18" height="18" x="117" y="27"><style>.byst0{fill:#fff}</style><path id="byXMLID_1_" class="byst0" d="M-29 6.2c-3.9 0-7 3.1-7 7 0 3.1 2 5.7 4.8 6.6.4.1.5-.1.5-.3v-1.3c-1.8.3-2.2-.4-2.4-.8-.1-.2-.4-.8-.7-1-.2-.1-.6-.5 0-.5s.9.5 1.1.7c.6 1.1 1.6.8 2 .6.1-.5.2-.8.4-.9-1.6-.2-3.2-.8-3.2-3.5 0-.8.3-1.4.7-1.9 0-.2-.2-.9.1-1.8 0 0 .6-.2 1.9.7.6-.2 1.2-.2 1.8-.2s1.2.1 1.8.2c1.3-.9 1.9-.7 1.9-.7.4 1 .1 1.7.1 1.9.4.5.7 1.1.7 1.9 0 2.7-1.6 3.3-3.2 3.5.3.2.5.6.5 1.3v1.9c0 .2.1.4.5.3 2.8-1 4.8-3.6 4.8-6.6-.1-4-3.2-7.1-7.1-7.1z"/></svg><svg width="18" height="18" viewBox="-1 -1 18 18" id="gksp" x="135" y="27"><path fill-rule="evenodd" clip-rule="evenodd" fill="#00a4ff" d="M8 1C4.1 1 1 4.1 1 8s3.1 7 7 7 7-3.1 7-7-3.1-7-7-7zm0 13c-3.3 0-6-2.7-6-6s2.7-6 6-6 6 2.7 6 6-2.7 6-6 6zm2-6.7L7 5l-1-.7v7.5l1-.8 3.6-2.9.3-.1-.9-.7zM7 9.6V6.3L9.2 8 7 9.6z"/></svg><svg id="global-1616-1" viewBox="-1 -1 18 18" width="18" height="18" x="93" y="100"><style>.cast0{fill:#fff}.cast0,.cast1,.cast2{fill-rule:evenodd;clip-rule:evenodd}.cast1{opacity:.2;fill:#fff}.cast2{fill:none;stroke:#fff;stroke-miterlimit:10}</style><g id="caXMLID_2_"><g id="caXMLID_41_"><path id="caXMLID_42_" class="cast0" d="M8 1C4.1 1 1 4.1 1 8s3.1 7 7 7 7-3.1 7-7-3.1-7-7-7zm0 13c-3.3 0-6-2.7-6-6s2.7-6 6-6 6 2.7 6 6-2.7 6-6 6z"/></g></g><path id="caXMLID_1_" class="cast1" d="M2.5 5.1s1.4-.4 3.2-.8c1 .7-.3 2.2-.9 2.6-.6.4 0 1.7 0 1.7v.9h.9l.9 1.5.9.5.9-.3s1.1-1.5 0-3.5c1.9 0 1.7-1.7 1.7-1.7l4.2.7s-.9-4.1-5.1-5C5 .8 2.7 4 2.5 5.1z"/><path id="caXMLID_3_" class="cast2" d="M2.5 5.1s1.4-.4 3.2-.8c1 .7-.3 2.2-.9 2.6-.6.4 0 1.7 0 1.7v.9h.9l.9 1.5.9.5.9-.3s1.1-1.5 0-3.5c1.9 0 1.7-1.7 1.7-1.7l4.2.7s-.9-4.1-5.1-5C5 .8 2.7 4 2.5 5.1z"/></svg><svg id="global-1616-1" viewBox="-6 6 18 18" width="18" height="18" x="111" y="100"><style>.cbst0{fill:#fff}.cbst1{fill:none;stroke:#fff;stroke-miterlimit:10}</style><g id="cbXMLID_2_"><g id="cbXMLID_41_"><path id="cbXMLID_42_" class="cbst0" d="M3 8c-3.9 0-7 3.1-7 7s3.1 7 7 7 7-3.1 7-7-3.1-7-7-7zm0 13c-3.3 0-6-2.7-6-6s2.7-6 6-6 6 2.7 6 6-2.7 6-6 6z"/></g></g><path id="cbXMLID_3_" class="cbst1" d="M-2.5 12.1s1.4-.4 3.2-.8c1 .7-.3 2.2-.9 2.6s0 1.7 0 1.7v.9h.9l.9 1.5.9.5.9-.3s1.1-1.5 0-3.5c1.9 0 1.7-1.7 1.7-1.7l4.2.7s-.9-4.1-5.1-5C0 7.8-2.3 11-2.5 12.1z"/></svg><svg width="18" height="18" viewBox="-1 -1 18 18" id="global-1616-1-new" x="129" y="100"><g fill="none" fill-rule="evenodd" stroke="#FFF"><circle cx="8" cy="8" r="7" stroke-width="2"/><path d="M1.345 4.537l5.308 1.086L5.61 8.747l1.76.88.852 1.702 1.404-.702.926-1.85.13-.163 2.192-1.803 2.605.632A7.5 7.5 0 0 0 1.345 4.537z"/></g></svg><svg id="global-1616-2" viewBox="-1 -1 18 18" width="18" height="18" x="147" y="100"><style>.cdst0{fill:#00a4ff}.cdst0,.cdst1,.cdst2{fill-rule:evenodd;clip-rule:evenodd}.cdst1{opacity:.2;fill:#598aff}.cdst2{fill:none;stroke:#00a4ff;stroke-miterlimit:10}</style><g id="cdXMLID_2_"><g id="cdXMLID_37_"><path id="cdXMLID_38_" class="cdst0" d="M8 1C4.1 1 1 4.1 1 8s3.1 7 7 7 7-3.1 7-7-3.1-7-7-7zm0 13c-3.3 0-6-2.7-6-6s2.7-6 6-6 6 2.7 6 6-2.7 6-6 6z"/></g></g><path id="cdXMLID_1_" class="cdst1" d="M2.5 5.1s1.4-.4 3.2-.8c1 .7-.3 2.2-.9 2.6-.6.4 0 1.7 0 1.7v.9h.9l.9 1.5.9.5.9-.3s1.1-1.5 0-3.5c1.9 0 1.7-1.7 1.7-1.7l4.2.7s-.9-4.1-5.1-5C5 .8 2.7 4 2.5 5.1z"/><path id="cdXMLID_3_" class="cdst2" d="M2.5 5.1s1.4-.4 3.2-.8c1 .7-.3 2.2-.9 2.6-.6.4 0 1.7 0 1.7v.9h.9l.9 1.5.9.5.9-.3s1.1-1.5 0-3.5c1.9 0 1.7-1.7 1.7-1.7l4.2.7s-.9-4.1-5.1-5C5 .8 2.7 4 2.5 5.1z"/></svg><svg width="18" height="18" viewBox="-1 -1 18 18" id="global-1616-2-new" x="40" y="216"><g fill="none" fill-rule="evenodd" stroke="#00a4ff"><circle cx="8" cy="8" r="7" stroke-width="2"/><path d="M1.345 4.537l5.308 1.086L5.61 8.747l1.76.88.852 1.702 1.404-.702.926-1.85.13-.163 2.192-1.803 2.605.632A7.5 7.5 0 0 0 1.345 4.537z"/></g></svg><svg width="26" height="26" viewBox="-294 384 26 26" id="hasmsg-2424-1-inline" x="176" y="186"><path fill="#FFF" d="M-271.1 393.9c.3 1 .5 2 .5 3.1 0 2.1-.6 4-1.7 5.6-1.1-2.4-3.2-4.3-5.7-5.1 1.1-.9 1.8-2.2 1.8-3.7 0-2.7-2.1-4.8-4.8-4.8s-4.8 2.1-4.8 4.8c0 1.5.7 2.8 1.8 3.7-2.5.8-4.6 2.7-5.7 5.1-1.1-1.6-1.7-3.5-1.7-5.6 0-5.7 4.7-10.4 10.4-10.4 1.5 0 3 .3 4.3.9.2-.5.4-1 .7-1.4-1.6-.7-3.2-1.1-5-1.1-6.6 0-12 5.4-12 12s5.4 12 12 12 12-5.4 12-12c0-1.3-.2-2.5-.6-3.7-.4.3-.9.5-1.5.6zm-13.1-.1c0-1.8 1.4-3.2 3.2-3.2s3.2 1.4 3.2 3.2c0 1.8-1.4 3.2-3.2 3.2s-3.2-1.4-3.2-3.2zm3.2 13.6c-3 0-5.7-1.3-7.6-3.3 1-3.2 4-5.5 7.6-5.5 3.5 0 6.5 2.3 7.6 5.5-1.9 2-4.6 3.3-7.6 3.3z"/><path fill="#00A4FF" d="M-272 386c1.7 0 3 1.3 3 3s-1.3 3-3 3-3-1.3-3-3 1.3-3 3-3z"/></svg><svg width="26" height="26" viewBox="-294 384 26 26" id="hasmsg-2424-2-inline" x="202" y="186"><path fill="#00A4FF" d="M-271.1 393.9c.3 1 .5 2 .5 3.1 0 2.1-.6 4-1.7 5.6-1.1-2.4-3.2-4.3-5.7-5.1 1.1-.9 1.8-2.2 1.8-3.7 0-2.7-2.1-4.8-4.8-4.8s-4.8 2.1-4.8 4.8c0 1.5.7 2.8 1.8 3.7-2.5.8-4.6 2.7-5.7 5.1-1.1-1.6-1.7-3.5-1.7-5.6 0-5.7 4.7-10.4 10.4-10.4 1.5 0 3 .3 4.3.9.2-.5.4-1 .7-1.4-1.6-.7-3.2-1.1-5-1.1-6.6 0-12 5.4-12 12s5.4 12 12 12 12-5.4 12-12c0-1.3-.2-2.5-.6-3.7-.4.3-.9.5-1.5.6zm-13.1-.1c0-1.8 1.4-3.2 3.2-3.2s3.2 1.4 3.2 3.2c0 1.8-1.4 3.2-3.2 3.2s-3.2-1.4-3.2-3.2zm3.2 13.6c-3 0-5.7-1.3-7.6-3.3 1-3.2 4-5.5 7.6-5.5 3.5 0 6.5 2.3 7.6 5.5-1.9 2-4.6 3.3-7.6 3.3z"/><path fill="#00A4FF" d="M-272 386c1.7 0 3 1.3 3 3s-1.3 3-3 3-3-1.3-3-3 1.3-3 3-3z"/></svg><svg width="34" height="34" viewBox="-1 -1 34 34" id="icon-error" x="68" y="152"><title>Page 1</title><defs><path id="cha" d="M0 0h32v32H0z"/></defs><g fill="none" fill-rule="evenodd"><mask id="chb" fill="#fff"><use xlink:href="#cha"/></mask><path d="M16 28.903C8.885 28.903 3.097 23.115 3.097 16S8.885 3.097 16 3.097 28.903 8.885 28.903 16 23.115 28.903 16 28.903zM16 0C7.164 0 0 7.163 0 16c0 8.836 7.164 16 16 16s16-7.164 16-16c0-8.837-7.164-16-16-16zm-1.548 18.58h3.097V8.257h-3.097V18.58zm0 5.162h3.097v-3.097h-3.097v3.097z" fill="#E54545" mask="url(#chb)"/></g></svg><svg id="icon-level" data-name="图层 1" width="18" height="18" viewBox="-1 -1 18 18" x="112" y="216"><defs><style>.cicls-1{fill:#999}</style></defs><title>高级</title><path class="cicls-1" d="M0 8h2v8H0zm7-4h2v12H7zm7-4h2v16h-2z"/></svg><svg id="icon-step" width="18" height="18" viewBox="-1 -1 18 18" x="130" y="216"><style>.cjst0{clip-path:url(#cjSVGID_2_)}.cjst1{clip-path:url(#cjXMLID_8_);fill:#989898}</style><defs><path id="cjSVGID_1_" d="M16 13c0 .6-.4 1-1 1H7c-.6 0-1-.4-1-1s.4-1 1-1h8c.6 0 1 .4 1 1zm0-5c0 .6-.4 1-1 1H7c-.6 0-1-.4-1-1s.4-1 1-1h8c.6 0 1 .4 1 1zm0-5c0 .6-.4 1-1 1H7c-.6 0-1-.4-1-1s.4-1 1-1h8c.6 0 1 .4 1 1zM3 9.7c.6-.3 1-1 1-1.7s-.4-1.4-1-1.7V4.7c.6-.3 1-1 1-1.7 0-1.1-.9-2-2-2s-2 .9-2 2c0 .7.4 1.4 1 1.7v1.5C.4 6.6 0 7.3 0 8s.4 1.4 1 1.7v1.5c-.6.3-1 1-1 1.7 0 1.1.9 2 2 2s2-.9 2-2c0-.7-.4-1.4-1-1.7V9.7z"/></defs><clipPath id="cjSVGID_2_"><use xlink:href="#cjSVGID_1_" overflow="visible"/></clipPath><g class="cjst0"><defs><path id="cjXMLID_5_" d="M-400-1187h1920v4750H-400z"/></defs><clipPath id="cjXMLID_8_"><use xlink:href="#cjXMLID_5_" overflow="visible"/></clipPath><path id="cjXMLID_6_" class="cjst1" d="M-5-4h26v24H-5z"/></g></svg><svg data-name="图层 1" width="18" height="18" viewBox="-1 -1 18 18" id="icon-success" x="148" y="216"><title>icon-success</title><path d="M7.041 8.79L5.3 7.047 3.885 8.461l3.156 3.157L8.456 10.2 12 6.624 10.586 5.21zM8 3a5 5 0 1 1-5 5 5 5 0 0 1 5-5m0-2a7 7 0 1 0 7 7 7 7 0 0 0-7-7z" fill="#0abf5b"/></svg><svg id="icon-tc" width="93" height="18" viewBox="-1 -1 93 18" y="100"><style>.clst0{fill:#999}</style><g id="clXMLID_80_"><path id="clXMLID_81_" class="clst0" d="M83.8 1.9l-.6 3h-3.8l1.5 2h2l-1.6 8.8h3.4L86.2 7h4.3l-6.7-5.1zM16.4 0H.9L.5 2.3h6L4 15.8h3.4L9.9 2.3H16l.4-2.3zM19 4.7c-4.3 0-7.1 2.6-7.7 5.5-.6 3.3 1.6 5.7 5.9 5.7 2 0 3.8-.3 5.3-1.1l.5-2.5c-1.5 1-3.3 1.5-4.9 1.5-2.2 0-3.9-.9-3.6-2.8h9c.1-.2.2-.6.3-1.1.5-2.3-.4-5.2-4.8-5.2zm1.7 4.5h-5.9c.4-1.1 1.5-2.6 3.6-2.6 2.3 0 2.5 1.6 2.3 2.6zm13.4-4.5c-2.1 0-3.7.8-4.5 1.7h-.1l-3-1.7c-.1.9-.3 2.2-.5 3.5l-1.4 7.6H28l1.2-6.4.3-.9c.5-.8 1.6-1.6 2.9-1.6 1.9 0 2.4 1.2 2.1 2.7l-1.1 6.1h3.4L38 9.4c.6-3.5-1.6-4.7-3.9-4.7zm40.9 0c-2.1 0-3.7.8-4.5 1.7h-.1l-3-1.7c-.1.9-.3 2.2-.5 3.5l-1.4 7.6H69l1.2-6.4.3-.9c.5-.8 1.6-1.6 2.9-1.6 1.9 0 2.4 1.2 2.1 2.7l-1.1 6.1h3.4L79 9.4c.6-3.5-1.6-4.7-4-4.7zm-15.1 0c-4.3 0-7.1 2.6-7.7 5.5-.6 3.3 1.6 5.7 5.9 5.7 2 0 3.8-.3 5.3-1.1l.5-2.5c-1.5 1-3.3 1.5-4.9 1.5-2.2 0-3.9-.9-3.6-2.8h9c.1-.2.2-.6.3-1.1.5-2.3-.4-5.2-4.8-5.2zm1.8 4.5h-5.9c.4-1.1 1.5-2.6 3.6-2.6 2.3 0 2.5 1.6 2.3 2.6zm-22.3 1c-.6 3.3 1.9 5.8 6.1 5.8 1.7 0 3.7-.5 4.5-.7l.6-2.9c-1.2 1.2-2.8 1.4-3.9 1.4-2.3 0-4.1-1.3-3.7-3.5.4-2 2.4-3.5 5-3.5 1.1 0 2.5.3 3.4 1.5l.5-2.9c-.7-.3-1.9-.6-3.7-.6-4.8-.1-8.2 2.2-8.8 5.4z"/></g></svg><svg id="icon-time" width="18" height="18" viewBox="-1 -1 18 18" x="184" y="216"><style>.cmst0{clip-path:url(#cmSVGID_2_)}.cmst1{clip-path:url(#cmXMLID_7_);fill:#989898}</style><defs><path id="cmSVGID_1_" d="M8 2C4.7 2 2 4.7 2 8s2.7 6 6 6 6-2.7 6-6-2.7-6-6-6zm0-2c4.4 0 8 3.6 8 8s-3.6 8-8 8-8-3.6-8-8 3.6-8 8-8zm1 7.6l1.7 1c.5.3.6.9.4 1.4s-.9.6-1.4.4L7 8.7V5c0-.6.4-1 1-1s1 .4 1 1v2.6z"/></defs><clipPath id="cmSVGID_2_"><use xlink:href="#cmSVGID_1_" overflow="visible"/></clipPath><g class="cmst0"><defs><path id="cmXMLID_4_" d="M-495-1187h1920v4750H-495z"/></defs><clipPath id="cmXMLID_7_"><use xlink:href="#cmXMLID_4_" overflow="visible"/></clipPath><path id="cmXMLID_5_" class="cmst1" d="M-5-5h26v26H-5z"/></g></svg><svg width="18" height="18" viewBox="-1 -1 18 18" id="icon-tips" x="202" y="216"><g fill="#444"><path d="M8 1a7 7 0 1 0 0 14A7 7 0 0 0 8 1zm0 13c-3.308 0-6-2.692-6-6s2.692-6 6-6 6 2.692 6 6-2.692 6-6 6z"/><path d="M7.91 10.652a.844.844 0 0 0-.624.24c-.168.152-.252.356-.252.612 0 .24.084.444.252.612s.376.252.624.252c.24 0 .448-.08.624-.24a.853.853 0 0 0 .264-.624c0-.256-.084-.46-.252-.612-.16-.16-.372-.24-.636-.24zm.216-7.02c-.888 0-1.584.256-2.088.768-.504.504-.756 1.192-.756 2.064h1.26c0-.528.108-.936.324-1.224.24-.344.632-.516 1.176-.516.44 0 .78.12 1.02.36.232.248.348.576.348.984 0 .296-.112.588-.336.876l-.204.228c-.752.672-1.204 1.168-1.356 1.488-.16.296-.24.676-.24 1.14v.204h1.284V9.8c0-.296.064-.56.192-.792.112-.232.28-.44.504-.624.568-.496.904-.808 1.008-.936.304-.392.456-.88.456-1.464 0-.728-.24-1.3-.72-1.716-.472-.424-1.096-.636-1.872-.636z"/></g></svg><svg id="icon-video" width="18" height="18" viewBox="-1 -1 18 18" x="220" y="216"><style>.cost0{clip-path:url(#coSVGID_2_)}.cost1{clip-path:url(#coXMLID_7_);fill:#989898}</style><defs><path id="coSVGID_1_" d="M2 2v12h12V2H2zm4 3l5 3-5 3V5zM1 0h14c.6 0 1 .4 1 1v14c0 .6-.4 1-1 1H1c-.6 0-1-.4-1-1V1c0-.6.4-1 1-1z"/></defs><clipPath id="coSVGID_2_"><use xlink:href="#coSVGID_1_" overflow="visible"/></clipPath><g class="cost0"><defs><path id="coXMLID_4_" d="M-401-2814h1920v4750H-401z"/></defs><clipPath id="coXMLID_7_"><use xlink:href="#coXMLID_4_" overflow="visible"/></clipPath><path id="coXMLID_5_" class="cost1" d="M-5-5h26v26H-5z"/></g></svg><svg id="icon-view" data-name="图层 1" width="18" height="18" viewBox="-1 -1 18 18" x="238" y="216"><defs><style>.cpcls-1{fill:#999}</style></defs><title>icon</title><path class="cpcls-1" d="M7.5 10C3.36 10 0 11.34 0 13v3h15v-3c0-1.66-3.36-3-7.5-3zm5.5 4H2v-.76C2.51 12.77 4.49 12 7.5 12s5 .77 5.5 1.24zM7.5 9A4.5 4.5 0 1 0 3 4.5 4.5 4.5 0 0 0 7.5 9zm0-7A2.5 2.5 0 1 1 5 4.5 2.5 2.5 0 0 1 7.5 2z"/></svg><svg id="icon-wb" width="18" height="18" viewBox="-298 388 18 18" y="236"><style>.cqst0{fill:#ccc}</style><path class="cqst0" d="M-282.1 391.9c-1.1-1.2-2.6-1.6-4-1.3-.3.1-.5.4-.5.7.1.3.4.5.7.5 1-.2 2.1.1 2.9.9.7.8.9 2 .6 3-.1.3.1.7.4.8.3.1.7-.1.8-.4.4-1.4.2-3-.9-4.2zm-1.8 3.8c.3.1.6-.1.7-.3.2-.7.1-1.5-.4-2-.5-.6-1.3-.8-2-.6-.3.1-.5.3-.4.6.1.3.3.5.6.4.3-.1.7 0 1 .3.3.3.3.7.2 1-.2.2 0 .5.3.6zm-1.1 1.1c-.2-.1-.5-.1-.3-.4.3-.6.4-1.2.1-1.6-.5-.7-1.9-.7-3.6 0 0 0-.5.2-.4-.2.3-.8.2-1.5-.2-1.9-.9-.9-3.2 0-5.2 2.1-1.5 1.5-2.4 3.1-2.4 4.5 0 2.7 3.4 4.3 6.7 4.3 4.4 0 7.2-2.5 7.2-4.5.1-1.4-1-2.1-1.9-2.3zm-5.3 5.7c-2.6.3-4.9-.9-5.1-2.7-.2-1.7 1.8-3.4 4.5-3.6 2.6-.3 4.9.9 5.1 2.7.2 1.8-1.8 3.4-4.5 3.6zm.3-4.9c-1.3-.3-2.7.3-3.2 1.4-.6 1.1 0 2.4 1.3 2.8 1.3.4 2.9-.2 3.4-1.5.5-1.2-.2-2.4-1.5-2.7zm-1 2.9c-.3.4-.8.6-1.2.4-.4-.2-.5-.7-.3-1.1.3-.4.8-.6 1.2-.4.4.2.6.7.3 1.1zm.9-1.1c-.1.2-.3.2-.5.2-.2-.1-.2-.2-.1-.4s.3-.2.4-.2c.2 0 .3.2.2.4z"/></svg><svg id="icon-wb-h" width="18" height="18" viewBox="-298 388 18 18" x="18" y="236"><style>.crst0{fill:#fff}</style><path class="crst0" d="M-282.1 391.8c-1.1-1.2-2.6-1.6-4-1.3-.3.1-.5.4-.5.7.1.3.4.5.7.5 1-.2 2.1.1 2.9.9.7.8.9 2 .6 3-.1.3.1.7.4.8.3.1.7-.1.8-.4.4-1.4.2-3-.9-4.2zm-1.8 3.8c.3.1.6-.1.7-.3.2-.7.1-1.5-.4-2-.5-.6-1.3-.8-2-.6-.3.1-.5.3-.4.6.1.3.3.5.6.4.3-.1.7 0 1 .3s.3.7.2 1c-.2.2 0 .5.3.6zm-1.1 1.1c-.2-.1-.5-.1-.3-.4.3-.6.4-1.2.1-1.6-.5-.7-1.9-.7-3.6 0 0 0-.5.2-.4-.2.3-.8.2-1.5-.2-1.9-.9-.9-3.2 0-5.2 2.1-1.5 1.5-2.4 3.1-2.4 4.5 0 2.7 3.4 4.3 6.7 4.3 4.4 0 7.2-2.5 7.2-4.5.1-1.4-1-2.1-1.9-2.3zm-5.3 5.7c-2.6.3-4.9-.9-5.1-2.7-.2-1.7 1.8-3.4 4.5-3.6 2.6-.3 4.9.9 5.1 2.7.2 1.8-1.8 3.4-4.5 3.6zm.3-4.9c-1.3-.3-2.7.3-3.2 1.4-.6 1.1 0 2.4 1.3 2.8s2.9-.2 3.4-1.5c.5-1.2-.2-2.4-1.5-2.7zm-1 2.9c-.3.4-.8.6-1.2.4-.4-.2-.5-.7-.3-1.1.3-.4.8-.6 1.2-.4.4.2.6.7.3 1.1zm.9-1.1c-.1.2-.3.2-.5.2-.2-.1-.2-.2-.1-.4s.3-.2.4-.2c.2 0 .3.2.2.4z"/></svg><svg id="icon-wx" width="18" height="18" viewBox="-298 388 18 18" x="36" y="236"><style>.csst0{fill:#ccc}</style><path class="csst0" d="M-281 398.8c0-2.3-2.3-4.1-4.8-4.1-2.7 0-4.8 1.8-4.8 4.1s2.1 4.1 4.8 4.1c.6 0 1.1-.1 1.7-.3l1.6.8-.4-1.4c1.1-.8 1.9-1.9 1.9-3.2zm-6.4-.7c-.3 0-.5-.2-.5-.5s.2-.5.5-.5.5.2.5.5c0 .2-.2.5-.5.5zm3.1 0c-.3 0-.5-.2-.5-.5s.2-.5.5-.5.5.2.5.5c0 .2-.2.5-.5.5zm-1.9-3.7h.5c-.5-2.3-2.9-4-5.7-4-3.1 0-5.7 2.1-5.7 4.8 0 1.6.8 2.8 2.3 3.8l-.6 1.7 2-1c.7.1 1.3.3 2 .3h.5c-.1-.4-.2-.8-.2-1.2.1-2.4 2.2-4.4 4.9-4.4zm-3.1-1.5c.4 0 .8.3.8.7s-.3.7-.8.7c-.4 0-.8-.3-.8-.7s.4-.7.8-.7zm-4 1.5c-.4 0-.7-.3-.7-.7s.3-.7.7-.7c.4 0 .8.3.8.7s-.4.7-.8.7z"/></svg><svg id="icon-wx-h" width="18" height="18" viewBox="-298 388 18 18" x="54" y="236"><style>.ctst0{fill:#fff}</style><path class="ctst0" d="M-280.9 398.9c0-2.3-2.3-4.1-4.8-4.1-2.7 0-4.8 1.8-4.8 4.1s2.1 4.1 4.8 4.1c.6 0 1.1-.1 1.7-.3l1.6.8-.4-1.4c1.1-.8 1.9-1.9 1.9-3.2zm-6.4-.7c-.3 0-.5-.2-.5-.5s.2-.5.5-.5.5.2.5.5c0 .2-.2.5-.5.5zm3.1 0c-.3 0-.5-.2-.5-.5s.2-.5.5-.5.5.2.5.5c0 .2-.2.5-.5.5zm-1.9-3.7h.5c-.5-2.3-2.9-4-5.7-4-3.1 0-5.7 2.1-5.7 4.8 0 1.6.8 2.8 2.3 3.8l-.6 1.7 2-1c.7.1 1.3.3 2 .3h.5c-.1-.4-.2-.8-.2-1.2.1-2.4 2.2-4.4 4.9-4.4zm-3.1-1.5c.4 0 .8.3.8.7s-.3.7-.8.7c-.4 0-.8-.3-.8-.7s.4-.7.8-.7zm-4 1.5c-.4 0-.7-.3-.7-.7s.3-.7.7-.7c.4 0 .8.3.8.7s-.4.7-.8.7z"/></svg><svg width="20" height="20" viewBox="-1 -1 20 20" id="icon_w2" x="146" y="73"><title>Group 20</title><g fill="none" fill-rule="evenodd"><circle fill="#F74042" cx="9" cy="9" r="9"/><path fill="#FFF" d="M8 4h2v6H8zm0 8h2v2H8z"/></g></svg><svg width="20" height="20" viewBox="-1 -1 20 20" id="icon_y2" x="238" y="132"><title>Oval</title><g fill="none" fill-rule="evenodd"><circle fill="#0ABF5B" cx="9" cy="9" r="9"/><path d="M8.265 13.064l-.022.023L4 8.844 5.414 7.43l2.836 2.835L12.515 6l1.414 1.414-5.657 5.657-.007-.007z" fill="#FFF"/></g></svg><svg width="8" height="6" viewBox="-303 394 8 6" id="lang-64-1-inline" x="96" y="66"><path fill="#FFF" d="M-299 397l1.5-2h1.5l-3 4-3-4h1.5l1.5 2z"/></svg><svg width="8" height="6" viewBox="-303 394 8 6" id="lang-64-2-inline" x="104" y="66"><path fill="#00A4FF" d="M-299 397l1.5-2h1.5l-3 4-3-4h1.5l1.5 2z"/></svg><svg width="14" height="14" viewBox="-1 -1 14 14" id="link-1212-#00a4ff" x="170" y="136"><style>.cyst0{fill-rule:evenodd;clip-rule:evenodd;fill:#00a4ff}</style><path class="cyst0" d="M1 11V1h3v1H2v8h8V8h1v3H1zm5.1-4.4l-.7-.7 2.8-2.8L6 1h5v5L8.9 3.9 6.1 6.6z"/></svg><svg id="link-1212-1" viewBox="-1 -1 14 14" width="14" height="14" x="282" y="255"><style>.czst0{fill-rule:evenodd;clip-rule:evenodd;fill:#7d848d}</style><path id="czXMLID_2_" class="czst0" d="M1 11V1h3v1H2v8h8V8h1v3H1zm5.1-4.4l-.7-.7 2.8-2.8L6 1h5v5L8.9 3.9 6.1 6.6z"/></svg><svg id="link-1212-1" viewBox="-1 -1 14 14" width="14" height="14" x="282" y="241"><style>.dast0{fill-rule:evenodd;clip-rule:evenodd;fill:#7d848d}</style><path id="daXMLID_2_" class="dast0" d="M1 11V1h3v1H2v8h8V8h1v3H1zm5.1-4.4l-.7-.7 2.8-2.8L6 1h5v5L8.9 3.9 6.1 6.6z"/></svg><svg id="link-1212-2" viewBox="-1 -1 14 14" width="14" height="14" x="282" y="227"><style>.dbst0{fill-rule:evenodd;clip-rule:evenodd;fill:#00a4ff}</style><path id="dbXMLID_2_" class="dbst0" d="M1 11V1h3v1H2v8h8V8h1v3H1zm5.1-4.4l-.7-.7 2.8-2.8L6 1h5v5L8.9 3.9 6.1 6.6z"/></svg><svg id="link-1212-3" viewBox="-1 -1 14 14" width="14" height="14" x="153" y="27"><style>.dcst0{fill-rule:evenodd;clip-rule:evenodd;fill:#fff}</style><path id="dcXMLID_2_" class="dcst0" d="M1 11V1h3v1H2v8h8V8h1v3H1zm5.1-4.4l-.7-.7 2.8-2.8L6 1h5v5L8.9 3.9 6.1 6.6z"/></svg><svg width="9" height="15" viewBox="-1 -1 9 15" id="link-arrow" x="282" y="198"><title>&amp;gt;</title><path d="M4.228 6.5l-4.242 4.243L1.4 12.158l5.657-5.657-1.414-1.415L1.4.844-.014 2.259 4.228 6.5z" fill="#00A4FF" fill-rule="evenodd"/></svg><svg width="7" height="10" viewBox="-1 -1 7 10" id="link-arrow-#00a4ff" x="163" y="46"><path d="M.714 8L5 4 .714 0 0 .667 3.571 4 0 7.333z" fill="#00a4ff" fill-rule="evenodd"/></svg><svg id="linkedin" viewBox="-1 -1 18 18" width="18" height="18" x="264" y="18"><style>.dfst0{fill-rule:evenodd;clip-rule:evenodd;fill:#fff}</style><path id="dfXMLID_9_" class="dfst0" d="M13 2H3c-.6 0-1 .4-1 1v10c0 .6.4 1 1 1h10c.6 0 1-.4 1-1V3c0-.6-.4-1-1-1zM6 12H4V7h2v5zM5 6c-.6 0-1-.4-1-1s.4-1 1-1 1 .4 1 1-.4 1-1 1zm7 6h-2V9H9v3H7V7h2v1l1-1h2v5z"/></svg><svg id="logo-9225-color" viewBox="-1 -1 94 27" width="94" height="27" y="73"><style>.dgst0{fill:#fff}.dgst1{fill:#00a3ff}.dgst2{fill:#00c8dc}.dgst3{fill:#006eff}</style><g id="dgXMLID_25_"><path id="dgXMLID_38_" class="dgst0" d="M72.8 4.6h-10V6h3v5.3h-3.5v1.5h3.5v8.9h1.6v-8.9h3.8v8.7h3V20h-1.4V4.6zm-5.4 6.7V6h3.8v5.3h-3.8z"/><path id="dgXMLID_14_" class="dgst0" d="M45 17.6h7.9v1.5H45z"/><path id="dgXMLID_33_" class="dgst0" d="M39.6 14.9c0 2.6-.2 4.6-.7 6.4 0 .2 0 .2.1.2h1.5c.5-2.4.5-4.5.6-5.9h2v4.5h-1.4c-.1 0-.1 0-.1.1l.4 1.3h2.6V4.6h-4.9v10.3zm1.5-.6v-3.5h2v3.5h-2zm2-8.2v3.4h-2V6.1h2z"/><path id="dgXMLID_30_" class="dgst0" d="M53.5 10.5h1.9V9.2h-5.7c.2-.4.3-.9.5-1.4h4.9V6.5h-1.4c.2-.8.5-1.8.5-1.8 0-.1 0-.1-.1-.1h-1.2l-.6 1.9h-1.7c.1-.7.2-1.6.4-2.5 0-.1 0-.1-.1-.1h-1.4c-.1 1-.3 1.9-.5 2.7h-.9l-.6-1.9h-1.2c-.1 0-.1 0-.1.1s.3 1 .5 1.8h-1.4v1.3h3.2c-.1.4-.3.9-.5 1.4h-3v1.3h2.3c-.9 1.3-1.9 1.9-2.3 2.2v1.5c0 .1.1.2.3 0 .4-.2.9-.5 1.4-.9H52v2h-4.3l.1-1.2c0-.1 0-.1-.1-.1h-1.4l-.1 2.5c0 .1 0 .1.1.1h7.4v3.5h-3.3c-.1 0-.1 0-.1.1l.4 1.3h4.6v-6.3h-1.8l.1-2.5c.7.6 1.4 1.1 2 1.4.2.1.3.1.3 0v-1.5c-.5-.3-1.5-.9-2.4-2.2zm-1.8 0c.3.6.7 1.1 1.1 1.5H48c.4-.4.7-.9 1.1-1.5h2.6z"/><path id="dgXMLID_8_" class="dgst0" d="M63.8 16.6s-1.4 1-2.7 2V9.2h-3.7v1.6h2.1v9c-.5.4-.9.6-.9.6l.9 1.2 4.4-3.3v-1.6c.1-.1 0-.2-.1-.1z"/><path id="dgXMLID_7_" class="dgst0" d="M59.7 7.7h1.7c.1 0 .1-.1.1-.1l-2.2-3.4h-1.7l-.1.1c.1.1 2.2 3.4 2.2 3.4z"/><path id="dgXMLID_6_" class="dgst0" d="M77.6 5h12.6v1.6H77.6z"/><path id="dgXMLID_5_" class="dgst0" d="M82.2 12.6H92V11H75.8v1.6h4.5c-.9 2.4-3.2 8.5-3.3 8.6 0 .1 0 .1.1.1H91c.1 0 .1-.1.1-.1L89 15.7h-1.7c-.1 0-.1.1-.1.1 0 .1 1.5 3.9 1.5 3.9h-9.2l2.7-7.1z"/></g><g id="dgXMLID_19_"><path id="dgXMLID_22_" class="dgst1" d="M29.5 20.6c-.6.6-1.7 1.3-3.5 1.3H14.3c3.5-3.4 6.5-6.3 6.8-6.6.3-.3 1-1 1.6-1.5 1.3-1.2 2.5-1.4 3.4-1.4 1.3 0 2.5.6 3.4 1.4 1.9 1.9 1.9 4.9 0 6.8m2.3-9c-1.4-1.5-3.4-2.4-5.6-2.4-1.9 0-3.5.7-5 1.8-.6.5-1.3 1.1-2.1 1.9-.5.5-12.3 12-12.3 12 .6.1 1.4.1 2.2.1h14.9c1.1 0 1.9 0 2.7-.1 1.8-.1 3.6-.8 5-2.2 3.2-3 3.2-8 .2-11.1z"/><path id="dgXMLID_2_" class="dgst2" d="M12.6 10.9c-1.4-1-3-1.6-4.7-1.6-2.2 0-4.2.9-5.6 2.4-3 3.1-3 8.1.1 11.2 1.3 1.2 2.8 1.9 4.4 2.1l3.1-3H8.1c-1.8-.1-2.9-.7-3.5-1.3a4.86 4.86 0 0 1-.1-6.8c.9-.9 2.1-1.4 3.4-1.4.8 0 2 .2 3.3 1.3.6.5 2 1.7 2.6 2.2h.1l2.1-2.1v-.1c-1.1-1-2.5-2.3-3.4-2.9"/><path id="dgXMLID_1_" class="dgst3" d="M27 7.5c-1.5-4.1-5.4-7-10-7-5.3 0-9.6 3.9-10.4 8.9.4-.1.8-.2 1.3-.2.6 0 1.2.1 1.8.2.7-3.4 3.7-5.9 7.3-5.9 3 0 5.6 1.8 6.8 4.4 0 0 .1.1.1 0 .9-.2 2-.4 3-.3.1 0 .1-.1.1-.1"/></g></svg><svg id="logo-cn" viewBox="-1 -1 96 27" width="96" height="27" y="46"><style>.dhst0{fill:#fff}</style><g id="dhXMLID_16_"><g id="dhXMLID_20_"><path id="dhXMLID_33_" class="dhst0" d="M74 4.2H63.8v1.5h3.1v5.4h-3.5v1.5h3.5v9h1.6v-9h3.9v8.8h3.1v-1.5H74V4.2zm-5.5 6.9V5.7h3.9v5.4h-3.9z"/><path id="dhXMLID_12_" class="dhst0" d="M45.7 17.4h8v1.5h-8z"/><path id="dhXMLID_28_" class="dhst0" d="M40.2 14.7c0 2.7-.2 4.7-.7 6.5 0 .2 0 .2.1.2h1.5c.5-2.5.6-4.5.6-6h2.1V20h-1.5c-.1 0-.1 0-.1.1l.4 1.3h2.6V4.3h-5v10.4zm1.5-.6v-3.5h2.1v3.5h-2.1zm2.1-8.4v3.5h-2.1V5.7h2.1z"/><path id="dhXMLID_25_" class="dhst0" d="M54.3 10.2h2V8.9h-5.8c.2-.4.3-.9.5-1.3h4.9V6.2h-1.4c.2-.8.5-1.8.5-1.8 0-.1 0-.1-.1-.1h-1.3l-.6 2h-1.8c.2-.8.3-1.6.4-2.6 0-.1 0-.1-.1-.1h-1.4c-.1 1-.3 1.9-.5 2.7h-.9l-.6-2H47c-.1 0-.1 0-.1.1s.3 1 .5 1.8H46v1.3h3.3c-.1.5-.3 1-.5 1.4h-3.1v1.3H48c-.9 1.3-1.9 2-2.3 2.2v1.5c0 .1.1.2.3 0 .4-.2.9-.5 1.4-.9h5.5v2h-4.3l.1-1.2c0-.1 0-.1-.1-.1h-1.4l-.1 2.5c0 .1 0 .1.1.1h7.5V20h-3.4c-.1 0-.1 0-.1.1l.4 1.3h4.7V15h-1.8l.1-2.6c.7.6 1.4 1.1 2 1.5.2.1.3.1.3 0v-1.5c-.7-.2-1.7-.8-2.6-2.2zm-1.8 0c.4.6.7 1.1 1.1 1.5h-4.8c.4-.4.7-.9 1.1-1.5h2.6z"/><path id="dhXMLID_6_" class="dhst0" d="M64.8 16.4s-1.4 1.1-2.7 2.1V8.9h-3.8v1.6h2.2v9.2c-.5.4-.9.7-.9.7l.9 1.2 4.5-3.4v-1.7c-.1-.1-.1-.1-.2-.1z"/><path id="dhXMLID_5_" class="dhst0" d="M60.7 7.5h1.8c.1 0 .1-.1.1-.1L60.4 4h-1.8c-.1 0-.1.1-.1.1l2.2 3.4z"/><path id="dhXMLID_4_" class="dhst0" d="M78.8 4.6h12.8v1.6H78.8z"/><path id="dhXMLID_3_" class="dhst0" d="M83.5 12.4h10v-1.6H77v1.6h4.5c-.9 2.5-3.3 8.7-3.3 8.7 0 .1 0 .1.1.1h14.1c.1 0 .1-.1.1-.1l-2.1-5.5h-1.8c-.1 0-.1.1-.1.1 0 .1 1.5 3.9 1.5 3.9h-9.4l2.9-7.2z"/></g><path id="dhXMLID_17_" class="dhst0" d="M32.2 11.4C30.8 9.9 28.8 9 26.5 9c-1.9 0-3.6.7-5.1 1.9-.6.5-1.3 1.1-2.1 1.9-.3.3-5.8 5.6-9.4 9.1H8c-1.8-.1-2.9-.8-3.5-1.4-1.9-1.9-2-5-.1-6.9.9-.9 2.1-1.4 3.5-1.5.8 0 2 .2 3.3 1.3.6.5 2 1.7 2.6 2.3h.1l2.1-2.1v-.1c-1-.9-2.5-2.2-3.4-2.9-.9-.7-1.9-1.2-3-1.4.7-3.5 3.8-6 7.4-6 3 0 5.7 1.8 6.9 4.4 0 0 .1.1.1 0 .9-.2 2-.4 3-.3.1 0 .1-.1.1-.1C25.9 3 21.9 0 17.3 0 11.9 0 7.5 4 6.7 9.1c-1.7.3-3.3 1.1-4.4 2.3-3.1 3.2-3 8.2.1 11.3 1.3 1.3 2.8 1.9 4.5 2.2.6.1 1.5.1 2.3.1h15.2c1.2 0 1.9 0 2.7-.1 1.9-.1 3.6-.8 5.1-2.2 3.1-3.1 3.1-8.2 0-11.3zm-2.3 9.1c-.6.6-1.7 1.3-3.5 1.4H14.5c3.5-3.4 6.6-6.4 6.9-6.7.3-.3 1-1 1.7-1.6 1.4-1.2 2.6-1.5 3.4-1.5 1.4 0 2.6.6 3.5 1.5 1.9 1.9 1.8 5-.1 6.9z"/></g></svg><svg id="logo-en" viewBox="-1 -1 170 27" width="170" height="27"><style>.dist0{fill:#fff}</style><path id="diXMLID_42_" class="dist0" d="M9.8 9.2c.7-3.5 3.8-6 7.4-6 3 0 5.7 1.8 6.9 4.4 0 0 .1.1.1 0 .9-.2 2-.4 3-.3.1 0 .1-.1.1-.1C25.9 3 21.9 0 17.3 0 11.9 0 7.5 3.9 6.7 9.1c-1.7.3-3.3 1.1-4.4 2.3-3.1 3.2-3.1 8.2.1 11.3 1.3 1.3 2.8 1.9 4.5 2.2.6.1 1.5.1 2.3.1h15.2c1.2 0 1.9 0 2.7-.1 1.9-.1 3.6-.8 5.1-2.2 3.2-3.1 3.2-8.2.1-11.3C30.8 9.9 28.8 9 26.6 9c-1.9 0-3.6.7-5.1 1.9-.6.5-1.3 1.1-2.1 1.9-.3.3-5.8 5.6-9.4 9.1H8.1c-1.8-.1-2.9-.8-3.5-1.4-1.9-1.9-2-5-.1-6.9.9-.9 2.1-1.4 3.5-1.5.8 0 2 .2 3.3 1.3.6.5 2 1.7 2.6 2.3h.1l2.1-2.1v-.1c-1-.9-2.5-2.2-3.4-2.9-.8-.7-1.8-1.2-2.9-1.4zm20.1 11.3c-.6.6-1.7 1.3-3.5 1.4h-12c3.5-3.4 6.6-6.4 6.9-6.7.3-.3 1-1 1.7-1.6 1.4-1.2 2.6-1.5 3.4-1.5 1.4 0 2.6.6 3.5 1.5 2 1.9 2 5 0 6.9z"/><g id="diXMLID_21_"><path id="diXMLID_16_" class="dist0" d="M128.2 16c0-.1-.1-.1-.2-.1-1.2 1.3-2.9 2.4-5.2 2.4-3.3 0-5.5-2.3-5.5-5.9 0-3.6 2-5.9 5.3-5.9 1.9 0 3.9.9 5.1 2.2.1.1.2 0 .2-.1V6.8c-1.3-1.2-3.3-1.9-5.3-1.9-2.1 0-3.8.7-5.1 2.1-1.2 1.4-1.9 3.3-1.9 5.5 0 4.5 2.9 7.6 7.1 7.6 2 0 4-.8 5.4-2V16z"/><path id="diXMLID_15_" class="dist0" d="M37.6 5.2v1.6h5v12.8h1.7V6.8h5V5.2z"/><path id="diXMLID_37_" class="dist0" d="M166.3 10.2c-.9-1-2.4-1.3-3.5-1.3-1.4 0-2.7.5-3.6 1.5-.9 1-1.4 2.4-1.4 4 0 3.8 2.5 5.6 5.1 5.6 1.5 0 2.7-.5 3.4-1.5v1.2h1.7V5.3h-1.7v4.9zm-.1 4.2c0 2-1.1 4-3.3 4-1.6 0-3.4-1.2-3.4-3.9 0-2 1-4.1 3.3-4.1 2.5 0 3.4 2.2 3.4 4z"/><path id="diXMLID_12_" class="dist0" d="M130.4 5.3h1.7v14.4h-1.7z"/><path id="diXMLID_11_" class="dist0" d="M80.3 17c0-.1-.1-.1-.2-.1-1.1 1-2.8 1.4-3.5 1.4-2.3 0-3.8-1.5-3.8-3.9s1.5-3.9 3.8-3.9c.7 0 2.3.2 3.5 1.2.1.1.2 0 .2-.1V10c-.7-.4-2.2-1.1-3.7-1.1-3.2 0-5.3 2.2-5.3 5.5s2.1 5.5 5.3 5.5c1.3 0 2.6-.4 3.7-1.1V17z"/><path id="diXMLID_32_" class="dist0" d="M57.7 16.7c0-.1-.1-.1-.2-.1-.8 1-2.6 1.8-3.7 1.8s-2.1-.4-2.6-.9c-.7-.7-1-1.6-1-2.6h8.1v-.1c0-2.3-.4-3.6-1.4-4.6-.8-.9-2-1.3-3.4-1.3-3 0-5 2.2-5 5.5.1 3.5 2.1 5.6 5.3 5.6 1.5 0 2.8-.5 4-1.5v-1.8zm-1.1-3.3h-6.4c.1-.9.5-1.7 1.2-2.3.6-.5 1.3-.7 2.1-.7 1.8 0 3 1.1 3.1 3z"/><path id="diXMLID_8_" class="dist0" d="M154.1 14.5c0 2.9-1.7 3.9-3.1 3.9-1.4 0-2.8-.9-2.8-2.7V9.1h-1.6v6.5c0 2.5 1.8 4.3 4.4 4.3 1.4 0 2.5-.5 3.3-1.4v1.2h1.6V9.1h-1.7v5.4z"/><path id="diXMLID_7_" class="dist0" d="M65 8.9c-1.3 0-2.4.4-3.2 1.2v-1h-1.6v10.6h1.7v-6c0-1 .3-1.8.9-2.4.6-.6 1.3-.9 2.2-.8 1.3 0 2.6.9 2.6 2.7v6.5h1.7v-6.6c0-1.3-.4-2.4-1.2-3.1-.8-.8-1.9-1.1-3.1-1.1z"/><path id="diXMLID_27_" class="dist0" d="M91.1 16.7c0-.1-.1-.1-.2-.1-.8 1-2.6 1.8-3.7 1.8s-2.1-.4-2.6-.9c-.7-.7-1-1.6-1-2.6h8.1v-.1c0-2.3-.4-3.6-1.4-4.6-.8-.9-2-1.3-3.4-1.3-3 0-5 2.2-5 5.5.1 3.5 2.1 5.6 5.3 5.6 1.5 0 2.8-.5 4-1.5v-1.8zM90 13.4h-6.4c.1-.9.5-1.7 1.2-2.3.6-.5 1.3-.7 2.1-.7 1.8 0 3 1.1 3.1 3z"/><path id="diXMLID_4_" class="dist0" d="M98.3 8.9c-1.3 0-2.4.4-3.2 1.2v-1h-1.6v10.6h1.7v-6c0-1 .3-1.8.9-2.4.6-.6 1.3-.9 2.2-.8 1.3 0 2.6.9 2.6 2.7v6.5h1.7v-6.6c0-1.3-.4-2.4-1.2-3.1-.8-.8-1.8-1.1-3.1-1.1z"/><path id="diXMLID_3_" class="dist0" d="M108 19.8c1-.1 2.2-.5 2.2-.5v-1.6c0-.1-.1-.1-.1-.1-.4.1-1.3.4-1.8.5-.2 0-.3.1-.4 0-.1-.1-.1-.2-.1-.3v-7.1h3V9.1h-3V6.3H106v2.8h-1.7v1.5h1.7v7.3c0 .6.2 1.1.6 1.4.3.3.8.5 1.4.5z"/><path id="diXMLID_22_" class="dist0" d="M139.6 8.9c-3.1 0-5.1 2.2-5.1 5.5s2.1 5.5 5.1 5.5c3.1 0 5.1-2.2 5.1-5.5s-2.1-5.5-5.1-5.5zm-3.6 5.5c0-2.3 1.4-3.9 3.5-3.9s3.5 1.6 3.5 3.9-1.4 3.9-3.5 3.9c-2 0-3.5-1.6-3.5-3.9z"/></g></svg><svg id="logo-en" viewBox="-1 -1 117 19" width="117" height="19" y="27"><style>.djst0{fill:#fff}</style><g id="djXMLID_20_"><path id="djXMLID_42_" class="djst0" d="M6.7 6.2c.5-2.4 2.6-4.1 5.1-4.1 2.1 0 3.9 1.2 4.7 3h.1c.5-.1 1.2-.2 2-.1.1 0 .1 0 .1-.1C17.6 2 14.9 0 11.7 0 8.1 0 5.1 2.7 4.5 6.2c-1.2.2-2.2.8-3 1.6-2.1 2.2-2.1 5.6.1 7.7.9.9 1.9 1.3 3 1.5h13.8c1.3-.1 2.5-.6 3.4-1.5 2.2-2.1 2.2-5.6.1-7.7-1-1-2.4-1.6-3.9-1.6-1.3 0-2.5.5-3.4 1.3-.4.4-.9.8-1.5 1.3-.2.2-3.9 3.8-6.4 6.2H5.4c-1.2 0-2-.5-2.4-.9-1.3-1.3-1.3-3.4-.1-4.7.6-.6 1.4-1 2.4-1 .6 0 1.4.2 2.2.9.4.4 1.4 1.2 1.8 1.5h.1L11 9.3v-.1c-.7-.6-1.7-1.5-2.3-2-.6-.4-1.3-.8-2-1zm13.7 7.7c-.4.4-1.2.9-2.4.9H9.9c2.4-2.3 4.5-4.4 4.7-4.6l1.1-1.1c.9-.8 1.8-1 2.3-1 .9 0 1.8.4 2.4 1 1.3 1.4 1.3 3.5 0 4.8z"/><g id="djXMLID_21_"><path id="djXMLID_16_" class="djst0" d="M87.6 10.9c0-.1-.1-.1-.1 0-.8.9-2 1.6-3.5 1.6-2.3 0-3.7-1.6-3.7-4 0-2.5 1.4-4 3.6-4 1.3 0 2.7.6 3.5 1.5h.1V4.6c-.9-.8-2.2-1.3-3.6-1.3s-2.6.5-3.5 1.4c-.8.9-1.3 2.2-1.3 3.7 0 3.1 1.9 5.2 4.8 5.2 1.4 0 2.7-.5 3.6-1.4v-1.3z"/><path id="djXMLID_15_" class="djst0" d="M26.1 3.6v1h3.4v8.8h1.1V4.6H34v-1z"/><path id="djXMLID_37_" class="djst0" d="M113.6 6.9c-.6-.7-1.6-.9-2.3-.9-1 0-1.8.4-2.5 1-.6.7-1 1.6-1 2.7 0 2.6 1.7 3.8 3.5 3.8 1 0 1.8-.4 2.3-1v.8h1.2V3.6h-1.2v3.3zm-.1 2.9c0 1.3-.8 2.7-2.3 2.7-1.1 0-2.3-.8-2.3-2.6 0-1.3.7-2.8 2.2-2.8 1.8 0 2.4 1.4 2.4 2.7z"/><path id="djXMLID_12_" class="djst0" d="M89.2 3.6h1.2v9.8h-1.2z"/><path id="djXMLID_11_" class="djst0" d="M55.1 11.6c0-.1-.1-.1-.1-.1-.8.7-1.9 1-2.4 1-1.6 0-2.6-1.1-2.6-2.7s1-2.7 2.6-2.7c.5 0 1.6.1 2.4.8 0 0 .1 0 .1-.1v-1c-.5-.3-1.5-.8-2.6-.8-2.2 0-3.6 1.5-3.6 3.8s1.5 3.8 3.6 3.8c.9 0 1.8-.2 2.5-.8v-1.2z"/><path id="djXMLID_32_" class="djst0" d="M39.7 11.3c0-.1-.1-.1-.1 0-.5.7-1.8 1.2-2.5 1.2s-1.4-.2-1.8-.6c-.5-.5-.7-1.1-.7-1.8h5.5V10c0-1.5-.3-2.4-.9-3.1-.6-.6-1.4-.9-2.4-.9-2 0-3.4 1.5-3.4 3.7.1 2.4 1.4 3.8 3.6 3.8 1 0 1.9-.3 2.7-1v-1.2zM39 9.1h-4.4c0-.6.3-1.2.8-1.6.4-.3.9-.5 1.4-.5 1.3 0 2.1.8 2.2 2.1z"/><path id="djXMLID_8_" class="djst0" d="M105.3 9.8c0 2-1.1 2.6-2.1 2.6-.9 0-1.9-.6-1.9-1.8V6.2h-1.1v4.4c0 1.7 1.2 2.9 3 2.9 1 0 1.7-.3 2.2-1v.8h1.1V6.2h-1.1v3.6z"/><path id="djXMLID_7_" class="djst0" d="M44.7 6c-.9 0-1.7.3-2.2.8v-.6h-1.1v7.2h1.1V9.3c0-.7.2-1.3.6-1.6.4-.4.9-.6 1.5-.6.9 0 1.8.6 1.8 1.9v4.4h1.1V8.9c0-.9-.3-1.6-.8-2.1s-1.2-.8-2-.8z"/><path id="djXMLID_27_" class="djst0" d="M62.4 11.3c0-.1-.1-.1-.1 0-.5.7-1.8 1.2-2.5 1.2s-1.4-.2-1.8-.6c-.5-.5-.7-1.1-.7-1.8h5.5V10c0-1.5-.3-2.4-.9-3.1-.6-.6-1.4-.9-2.4-.9-2 0-3.4 1.5-3.4 3.7.1 2.4 1.4 3.8 3.6 3.8 1 0 1.9-.3 2.7-1v-1.2zm-.7-2.2h-4.4c0-.6.3-1.2.8-1.6.4-.3.9-.5 1.4-.5 1.3 0 2.1.8 2.2 2.1z"/><path id="djXMLID_4_" class="djst0" d="M67.4 6c-.9 0-1.7.3-2.2.8v-.6h-1.1v7.2h1.1V9.3c0-.7.2-1.3.6-1.6.4-.4.9-.6 1.5-.6.9 0 1.8.6 1.8 1.9v4.4h1.1V8.9c0-.9-.3-1.6-.8-2.1s-1.2-.8-2-.8z"/><path id="djXMLID_3_" class="djst0" d="M73.9 13.5c.7 0 1.5-.3 1.5-.3v-1.1s0-.1-.1-.1c-.3.1-.9.3-1.2.3h-.3c-.1 0-.1-.1-.1-.2V7.2h2.1v-1h-2.1V4.3h-1.2v1.9h-1.2v1h1.2v4.9c0 .4.1.8.4 1 .3.3.6.4 1 .4z"/><path id="djXMLID_22_" class="djst0" d="M95.4 6c-2.1 0-3.5 1.5-3.5 3.8s1.4 3.8 3.5 3.8 3.5-1.5 3.5-3.8S97.5 6 95.4 6zM93 9.8c0-1.6 1-2.7 2.4-2.7s2.4 1.1 2.4 2.7-1 2.7-2.4 2.7S93 11.4 93 9.8z"/></g></g></svg><svg id="nav-2218" viewBox="-1 -1 24 20" width="24" height="20" x="238" y="72"><style>.dkst0{fill-rule:evenodd;clip-rule:evenodd;fill:#fff}</style><g id="dkXMLID_2_"><g id="dkXMLID_42_"><path id="dkXMLID_43_" class="dkst0" d="M0 0v2h22V0H0zm0 10h22V8H0v2zm0 8h22v-2H0v2z"/></g></g></svg><svg id="nav-2218-actived" viewBox="-1 -1 24 20" width="24" height="20" x="238" y="52"><style>.dlst0{fill-rule:evenodd;clip-rule:evenodd;fill:#00a4ff}</style><g id="dlXMLID_2_"><g id="dlXMLID_46_"><path id="dlXMLID_47_" class="dlst0" d="M0 0v2h22V0H0zm0 10h22V8H0v2zm0 8h22v-2H0v2z"/></g></g></svg><svg width="18" height="18" viewBox="-1 -1 18 18" id="nav-2218-actived-new" x="264" y="144"><path fill="#00a4ff" fill-rule="evenodd" d="M1 2h14v2H1V2zm0 5h14v2H1V7zm0 5h14v2H1v-2z"/></svg><svg width="18" height="18" viewBox="-1 -1 18 18" id="nav-2218-new" x="264" y="162"><path fill="#FFF" fill-rule="evenodd" d="M1 2h14v2H1V2zm0 5h14v2H1V7zm0 5h14v2H1v-2z"/></svg><svg width="34" height="34" viewBox="-290 380 34 34" id="nav-3232-actived-inline" x="204" y="68"><path fill="#00A4FF" d="M-285.5 390h25c.8 0 1.5-.7 1.5-1.5s-.7-1.5-1.5-1.5h-25c-.8 0-1.5.7-1.5 1.5s.7 1.5 1.5 1.5zm25 6h-25c-.8 0-1.5.7-1.5 1.5s.7 1.5 1.5 1.5h25c.8 0 1.5-.7 1.5-1.5s-.7-1.5-1.5-1.5zm0 9h-25c-.8 0-1.5.7-1.5 1.5s.7 1.5 1.5 1.5h25c.8 0 1.5-.7 1.5-1.5s-.7-1.5-1.5-1.5z"/></svg><svg width="34" height="34" viewBox="-290 380 34 34" id="nav-3232-inline" x="204" y="102"><path fill="#FFF" d="M-285.5 390h25c.8 0 1.5-.7 1.5-1.5s-.7-1.5-1.5-1.5h-25c-.8 0-1.5.7-1.5 1.5s.7 1.5 1.5 1.5zm25 6h-25c-.8 0-1.5.7-1.5 1.5s.7 1.5 1.5 1.5h25c.8 0 1.5-.7 1.5-1.5s-.7-1.5-1.5-1.5zm0 9h-25c-.8 0-1.5.7-1.5 1.5s.7 1.5 1.5 1.5h25c.8 0 1.5-.7 1.5-1.5s-.7-1.5-1.5-1.5z"/></svg><svg width="29" height="18" viewBox="-1 -1 29 18" id="nav-hot" x="204" y="166"><g fill="none" fill-rule="evenodd" transform="translate(0 2)"><path fill="#FF7800" stroke="#FF7800" d="M2.5.5v4H.809L2.5 7.882V12.5h24V.5h-24z"/><path fill="#FFF" d="M6 6h4V3h1v7h-1V7H6v3H5V3h1v3zm13-3h5v1h-5z"/><path fill="#FFF" d="M21 3h1v7h-1z"/><circle cx="15.5" cy="6.5" r="3" stroke="#FFF"/></g></svg><svg data-name="图层 1" width="18" height="18" viewBox="-1 -1 18 18" id="nav-search-cancel-icon" x="264" y="234"><title>关闭</title><path data-name="Page-1" fill="#fff" d="M12.573 2L8 6.573 3.426 2 2 3.427l4.574 4.574L2 12.574 3.426 14 8 9.427 12.573 14 14 12.574 9.426 8.001 14 3.427 12.573 2z"/></svg><svg data-name="图层 1" width="18" height="18" viewBox="-1 -1 18 18" id="nav-search-cancel-icon-active" y="254"><title>关闭</title><path data-name="Page-1" fill="#00a4ff" d="M12.573 2L8 6.573 3.426 2 2 3.427l4.574 4.574L2 12.574 3.426 14 8 9.427 12.573 14 14 12.574 9.426 8.001 14 3.427 12.573 2z"/></svg><svg id="pc-l-arrow" width="18" height="18" viewBox="-1 -1 18 18" x="18" y="254"><style>.dtst0{fill-rule:evenodd;clip-rule:evenodd;fill:#666}</style><path id="dtXMLID_2_" class="dtst0" d="M6.2 8.7L9.8 12l.7-.7L6.9 8l3.6-3.3-.7-.7-3.6 3.3-.7.7.7.7z"/></svg><svg id="pc-l-arrow-hover" width="18" height="18" viewBox="-1 -1 18 18" x="36" y="254"><style>.dust0{fill-rule:evenodd;clip-rule:evenodd;fill:#2b2b2b}</style><path id="duXMLID_2_" class="dust0" d="M6.2 8.7L9.8 12l.7-.7L6.9 8l3.6-3.3-.7-.7-3.6 3.3-.7.7.7.7z"/></svg><svg id="pc-r-arrow" width="18" height="18" viewBox="-1 -1 18 18" x="54" y="254"><style>.dvst0{fill-rule:evenodd;clip-rule:evenodd;fill:#666}</style><path id="dvXMLID_5_" class="dvst0" d="M9.8 7.3L6.2 3.8l-.7.7L9.1 8l-3.6 3.5.7.7 3.6-3.5.7-.7z"/></svg><svg id="pc-r-arrow-hover" width="18" height="18" viewBox="-1 -1 18 18" x="72" y="254"><style>.dwst0{fill-rule:evenodd;clip-rule:evenodd;fill:#2a2b2b}</style><path id="dwXMLID_5_" class="dwst0" d="M9.8 7.3L6.2 3.8l-.7.7L9.1 8l-3.6 3.5.7.7 3.6-3.5.7-.7z"/></svg><svg id="phone" width="20" height="20" viewBox="-1 -1 20 20" x="238" y="112"><style>.dxst0{fill:#666}</style><g id="dxXMLID_51_"><path id="dxXMLID_52_" class="dxst0" d="M12 7h2c0-1.7-1.3-3-3-3v2c.5 0 1 .5 1 1zm4 0h2c0-3.9-3.1-7-7-7v2c2.8 0 5 2.2 5 5zm1 3h-5l-1 1c-.1.1-.3.2-.4.2C9.2 11.2 6.1 7.9 7 7l1-1V1c0-.6-.4-1-1-1H1C.5 0 0 .5 0 1c.3 11.9 5.1 16.7 17 17 .6 0 1-.4 1-1v-6c0-.5-.5-1-1-1zm-1 6C6.2 15.5 2.5 11.8 2 2h4v3.5L4.7 7c0 .2.1 1 .4 1.8 1 2.5 4.4 4.3 5.9 4.4l1.5-1.2H16v4z"/></g></svg><svg id="phone-1616" data-name="图层 1" width="18" height="18" viewBox="-1 -1 18 18" x="108" y="254"><defs><style>.dycls-1{fill:#7d848d}</style></defs><title>2</title><path id="dycgXMLID" class="dycls-1" d="M3.06 2a16 16 0 0 1 1.63 2.4A2.53 2.53 0 0 0 4.15 6c0 1.75 3.51 5.35 5.21 5.35h.18a4.8 4.8 0 0 0 1.32-.27l.32-.1A18.59 18.59 0 0 1 14.13 13a2.42 2.42 0 0 1-1.43 1.21c-4 0-11-7.49-11-10.82A3.65 3.65 0 0 1 3.06 2m.24-2C2.4 0 0 1.9 0 3.4 0 7.8 7.8 16 12.7 16a3.83 3.83 0 0 0 3.3-3.4c0-.6-3.8-3.3-4.6-3.4s-1.3.4-2 .4c-.79 0-3.5-2.81-3.5-3.6s.7-.6.7-1.5C6.6 3.9 4.2 0 3.3 0z"/></svg><svg id="phone-1617" data-name="图层 1" width="18" height="18" viewBox="-1 -1 18 18" x="126" y="254"><defs><style>.dzcls-1{fill:#fff}</style></defs><title>2</title><path id="dzcgXMLID" class="dzcls-1" d="M3.06 2a16 16 0 0 1 1.63 2.4A2.53 2.53 0 0 0 4.15 6c0 1.75 3.51 5.35 5.21 5.35h.18a4.8 4.8 0 0 0 1.32-.27l.32-.1A18.59 18.59 0 0 1 14.13 13a2.42 2.42 0 0 1-1.43 1.21c-4 0-11-7.49-11-10.82A3.65 3.65 0 0 1 3.06 2m.24-2C2.4 0 0 1.9 0 3.4 0 7.8 7.8 16 12.7 16a3.83 3.83 0 0 0 3.3-3.4c0-.6-3.8-3.3-4.6-3.4s-1.3.4-2 .4c-.79 0-3.5-2.81-3.5-3.6s.7-.6.7-1.5C6.6 3.9 4.2 0 3.3 0z"/></svg><svg width="26" height="26" viewBox="-1 -1 26 26" id="qr-mask" x="150" y="186"><title>Combined Shape</title><path d="M12 22c5.523 0 10-4.477 10-10S17.523 2 12 2 2 6.477 2 12s4.477 10 10 10zm0 2C5.373 24 0 18.627 0 12S5.373 0 12 0s12 5.373 12 12-5.373 12-12 12zm4.313-15.69l-5.394 5.317-3.212-3.211-1.414 1.414 4.616 4.616 6.808-6.712-1.404-1.424z" fill="#62BC00"/></svg><svg width="20" height="20" viewBox="-1 -1 20 20" id="questionnaire" x="238" y="152"><title>Artboard Copy</title><g fill="#666"><path d="M14 11H4v2h10z"/><path d="M3 3v12h12V3H3zM1 1h16v16H1V1z"/><path d="M9 10h5V8h-3zM7.5 9l.7-.7L11 5.5 9.7 4 6.8 6.8 5.4 5.4 4 6.8l2.8 2.8z"/></g></svg><svg data-name="图层 1" width="18" height="18" viewBox="-1 -1 18 18" id="r" x="180" y="254"><title>单-常态</title><circle cx="8" cy="8" r="7.5" fill="#fff"/><path d="M8 1a7 7 0 1 1-7 7 7 7 0 0 1 7-7m0-1a8 8 0 1 0 8 8 8 8 0 0 0-8-8z" fill="#ddd"/></svg><svg data-name="图层 1" width="18" height="18" viewBox="-1 -1 18 18" id="r-c" x="198" y="254"><title>单-选中</title><circle cx="8" cy="8" r="7.5" fill="#fff"/><path d="M8 .98a7 7 0 1 1-7 7 7 7 0 0 1 7-7m0-1a8 8 0 1 0 8 8 8 8 0 0 0-8-8z" fill="#ddd"/><circle cx="8" cy="8" r="4" fill="#00a4ff"/></svg><svg data-name="图层 1" width="18" height="18" viewBox="-1 -1 18 18" id="r-d" x="216" y="254"><title>单-不可点</title><circle cx="8" cy="8" r="7.5" fill="#f7f8fa"/><path d="M8 1a7 7 0 0 1 7 7 7 7 0 0 1-7 7 7 7 0 0 1-7-7 7 7 0 0 1 7-7m0-1a8 8 0 1 0 8 8 8 8 0 0 0-8-8z" fill="#ddd"/></svg><svg data-name="图层 1" width="18" height="18" viewBox="-1 -1 18 18" id="r-d-c" x="234" y="254"><title>单-不可点02</title><circle cx="8" cy="8" r="7.5" fill="#f7f8fa"/><path d="M8 1a7 7 0 1 1-7 7 7 7 0 0 1 7-7m0-1a8 8 0 1 0 8 8 8 8 0 0 0-8-8z" fill="#ddd"/><circle cx="8" cy="8" r="4" fill="#ddd"/></svg><svg id="research" width="20" height="20" viewBox="-1 -1 20 20" x="238" y="172"><style>.egst0{fill:#666}</style><g id="egXMLID_55_"><path id="egXMLID_56_" class="egst0" d="M14 12H4v2h10v-2zM0 0v18h18V0H0zm16 16H2V2h14v14zm-7-6h5V8h-3l-2 2zM7.5 9l.7-.7L11 5.5 9.7 4 6.8 6.8 5.4 5.4 4 6.8l2.8 2.8.7-.6z"/></g></svg><svg width="26" height="26" viewBox="-1 -1 26 26" id="right" x="120" y="73"><title>对勾</title><g fill="none" fill-rule="evenodd"><path d="M0 0h24v24H0z"/><path fill="#00A4FF" fill-rule="nonzero" d="M9 16.2L4.8 12l-1.4 1.4L9 19 21 7l-1.4-1.4z"/></g></svg><svg id="s-logo" width="67" height="20" viewBox="-1 -1 67 20" x="96" y="46"><style>.eist0{fill:#fff}</style><g id="eiXMLID_2_"><g id="eiXMLID_6_"><path id="eiXMLID_19_" class="eist0" d="M51.5 3.2h-7.1v1h2.1V8h-2.4v1h2.4v6.3h1.1V9h2.7v6.1h2.1v-1h-1V3.2zM47.6 8V4.2h2.7V8h-2.7z"/><path id="eiXMLID_18_" class="eist0" d="M31.8 12.4h5.6v1h-5.6z"/><path id="eiXMLID_14_" class="eist0" d="M28 10.5c0 1.9-.2 3.3-.5 4.5 0 .1 0 .1.1.1h1c.4-1.6.4-3.1.4-4.1h1.4v3.2h-1s-.1 0-.1.1l.3.9h1.8v-12H28v7.3zm1-.4V7.6h1.4v2.5H29zm1.4-5.9v2.4H29V4.2h1.4z"/><path id="eiXMLID_11_" class="eist0" d="M37.8 7.4h1.4v-.9h-4c.1-.3.2-.6.3-1h3.4v-.9h-1c.2-.6.4-1.2.4-1.3 0-.1 0-.1-.1-.1h-.9l-.4 1.4h-1.2c.1-.6.2-1.1.3-1.8 0-.1 0-.1-.1-.1h-1c-.1.7-.2 1.3-.3 1.9H34l-.4-1.4h-.9s-.1 0-.1.1c0 0 .2.7.4 1.3h-1v.9h2.3c-.1.3-.2.6-.4 1h-2.2v.9h1.6c-.7.9-1.4 1.4-1.6 1.5V10c0 .1 0 .1.2 0 .3-.2.6-.4 1-.6h3.8v1.4h-3V10s0-.1-.1-.1h-1l-.1 1.7s0 .1.1.1h5.2v2.5h-2.3s-.1 0-.1.1l.3.9H39v-4.4h-1.3V9c.5.4 1 .8 1.4 1 .2.1.2 0 .2 0V8.9c-.2-.2-.9-.6-1.5-1.5zm-1.3 0c.2.4.5.8.8 1.1H34c.3-.3.5-.7.7-1.1h1.8z"/><path id="eiXMLID_10_" class="eist0" d="M45.1 11.7s-1 .7-1.9 1.4V6.5h-2.6v1.1h1.5V14c-.4.3-.6.5-.6.5l.6.8 3.1-2.4v-1.2s-.1-.1-.1 0z"/><path id="eiXMLID_9_" class="eist0" d="M42.2 5.4h1.2c.1 0 .1-.1.1-.1l-1.6-2.4h-1.2s-.1.1 0 .2l1.5 2.3z"/><path id="eiXMLID_8_" class="eist0" d="M54.8 3.5h8.9v1.1h-8.9z"/><path id="eiXMLID_7_" class="eist0" d="M58.1 8.9H65V7.7H53.6v1.1h3.2c-.7 1.7-2.3 6-2.3 6.1 0 0 0 .1.1.1h9.8s.1 0 .1-.1L63 11h-1.2s-.1 0-.1.1l1 2.7h-6.5l1.9-4.9z"/></g><path id="eiXMLID_3_" class="eist0" d="M22.4 8.2c-1-1-2.4-1.7-4-1.7-1.3 0-2.5.5-3.5 1.3-.4.4-.9.8-1.5 1.4-.2.2-4 3.9-6.5 6.3H5.6c-1.3 0-2-.5-2.4-.9-1.3-1.4-1.4-3.6 0-4.9.6-.6 1.5-1 2.4-1 .6 0 1.4.2 2.3.9.4.4 1.4 1.2 1.8 1.6h.1l1.5-1.5v-.1C10.6 9 9.6 8 9 7.6c-.6-.5-1.3-.8-2.1-1 .4-2.4 2.6-4.2 5.1-4.2 2.1 0 4 1.3 4.8 3.1h.1c.6-.2 1.4-.3 2.1-.2.1 0 .1 0 .1-.1-1-2.9-3.8-5-7-5C8.3.3 5.2 3 4.6 6.6c-1.2.2-2.2.8-3 1.6-2.2 2.2-2.1 5.7.1 7.9.9.9 2 1.3 3.1 1.5.4.1 1 .1 1.6.1h12.4c1.3-.1 2.5-.6 3.5-1.5 2.3-2.3 2.3-5.8.1-8zm-1.6 6.3c-.4.4-1.2.9-2.4.9h-8.3c2.4-2.4 4.6-4.5 4.8-4.7.2-.2.7-.7 1.2-1.1.9-.9 1.8-1 2.4-1 .9 0 1.8.4 2.4 1 1.3 1.4 1.3 3.6-.1 4.9z"/></g></svg><svg id="search" viewBox="-1 -1 18 18" width="18" height="18" x="282" y="36"><style>.ejst0{fill:#fff}</style><g id="ejXMLID_2_"><g id="ejXMLID_36_"><path id="ejXMLID_37_" class="ejst0" d="M14.8 13.4l-2.5-2.5C13.4 9.7 14 8.2 14 6.5 14 2.9 11.1 0 7.5 0S1 2.9 1 6.5 3.9 13 7.5 13c1.2 0 2.3-.3 3.2-.9l2.7 2.7c.4.4 1 .4 1.4 0 .4-.4.4-1 0-1.4zM3 6.5C3 4 5 2 7.5 2S12 4 12 6.5 10 11 7.5 11 3 9 3 6.5z"/></g></g></svg><svg id="search-1" viewBox="-1 -1 18 18" width="18" height="18" x="282" y="54"><style>.ekst0{fill-rule:evenodd;clip-rule:evenodd;fill:#006fff}</style><g id="ekXMLID_2_"><g id="ekXMLID_36_"><path id="ekXMLID_37_" class="ekst0" d="M14.8 13.4l-2.5-2.5C13.4 9.7 14 8.2 14 6.5 14 2.9 11.1 0 7.5 0S1 2.9 1 6.5 3.9 13 7.5 13c1.2 0 2.3-.3 3.2-.9l2.7 2.7c.4.4 1 .4 1.4 0 .4-.4.4-1 0-1.4zM3 6.5C3 4 5 2 7.5 2S12 4 12 6.5 10 11 7.5 11 3 9 3 6.5z"/></g></g></svg><svg width="18" height="18" viewBox="-298 388 18 18" id="search-1616-1-inline" x="282" y="72"><path fill="#FFF" d="M-282.3 403.3l-2.5-2.5c1-1.1 1.7-2.7 1.7-4.3 0-3.6-2.9-6.5-6.5-6.5-3.5 0-6.4 2.9-6.4 6.5s2.9 6.4 6.4 6.4c1.2 0 2.3-.3 3.2-.9l2.7 2.7c.4.4 1 .4 1.4 0 .4-.4.4-1 0-1.4zm-7.3-2.4c-2.4 0-4.4-2-4.4-4.4s2-4.5 4.4-4.5c2.5 0 4.5 2 4.5 4.5s-2 4.4-4.5 4.4z"/></svg><svg width="18" height="18" viewBox="-298 388 18 18" id="search-1616-1-inline-#00a4ff" x="282" y="90"><path fill="#00a4ff" d="M-282.3 403.3l-2.5-2.5c1-1.1 1.7-2.7 1.7-4.3 0-3.6-2.9-6.5-6.5-6.5-3.5 0-6.4 2.9-6.4 6.5s2.9 6.4 6.4 6.4c1.2 0 2.3-.3 3.2-.9l2.7 2.7c.4.4 1 .4 1.4 0 .4-.4.4-1 0-1.4zm-7.3-2.4c-2.4 0-4.4-2-4.4-4.4s2-4.5 4.4-4.5c2.5 0 4.5 2 4.5 4.5s-2 4.4-4.5 4.4z"/></svg><svg width="18" height="18" viewBox="-298 388 18 18" id="search-1616-1-inline-#aaa" x="282" y="108"><path fill="#aaa" d="M-282.3 403.3l-2.5-2.5c1-1.1 1.7-2.7 1.7-4.3 0-3.6-2.9-6.5-6.5-6.5-3.5 0-6.4 2.9-6.4 6.5s2.9 6.4 6.4 6.4c1.2 0 2.3-.3 3.2-.9l2.7 2.7c.4.4 1 .4 1.4 0 .4-.4.4-1 0-1.4zm-7.3-2.4c-2.4 0-4.4-2-4.4-4.4s2-4.5 4.4-4.5c2.5 0 4.5 2 4.5 4.5s-2 4.4-4.5 4.4z"/></svg><svg width="18" height="18" viewBox="-298 388 18 18" id="search-1616-2-inline" x="282" y="126"><path fill="#00A4FF" d="M-282.3 403.3l-2.5-2.5c1-1.1 1.7-2.7 1.7-4.3 0-3.6-2.9-6.5-6.5-6.5-3.5 0-6.4 2.9-6.4 6.5s2.9 6.4 6.4 6.4c1.2 0 2.3-.3 3.2-.9l2.7 2.7c.4.4 1 .4 1.4 0 .4-.4.4-1 0-1.4zm-7.3-2.4c-2.4 0-4.4-2-4.4-4.4s2-4.5 4.4-4.5c2.5 0 4.5 2 4.5 4.5s-2 4.4-4.5 4.4z"/></svg><svg width="18" height="18" viewBox="-298 388 18 18" id="search-1616-3-inline" x="282" y="144"><path fill="#999" d="M-282.3 403.3l-2.5-2.5c1-1.1 1.7-2.7 1.7-4.3 0-3.6-2.9-6.5-6.5-6.5-3.5 0-6.4 2.9-6.4 6.5s2.9 6.4 6.4 6.4c1.2 0 2.3-.3 3.2-.9l2.7 2.7c.4.4 1 .4 1.4 0 .4-.4.4-1 0-1.4zm-7.3-2.4c-2.4 0-4.4-2-4.4-4.4s2-4.5 4.4-4.5c2.5 0 4.5 2 4.5 4.5s-2 4.4-4.5 4.4z"/></svg><svg width="20" height="20" viewBox="-1 -1 20 20" id="service" y="216"><title>Artboard</title><path d="M2 7h1c0-3.3 2.7-6 6-6s6 2.7 6 6h1c1.1 0 2 .9 2 2v2c0 1.1-.9 2-2 2h-1c0 2.2-1.8 4-4 4H7v-3h4v1c1.1 0 2-.9 2-2V7c0-2.2-1.8-4-4-4S5 4.8 5 7v6H2c-1.1 0-2-.9-2-2V9c0-1.1.9-2 2-2zm14 4V9h-1v2h1zM2 11h1V9H2v2z" fill="#666"/></svg><svg id="shopping" width="20" height="20" viewBox="-1 -1 20 20" x="20" y="216"><style>.erst0{fill-rule:evenodd;clip-rule:evenodd;fill:#666}</style><path class="erst0" d="M0 18V0h18v18H0zM16 2H2v2h14V2zm0 4H2v10h14V6zm-7 5c1.7 0 3-1.3 3-3h2c0 2.8-2.2 5-5 5s-5-2.2-5-5h2c0 1.7 1.3 3 3 3z"/></svg><svg width="26" height="26" viewBox="-1 -1 26 26" id="sousuo" x="94" y="73"><linearGradient id="esa" gradientUnits="userSpaceOnUse" x1="5.13" y1="4.569" x2="21.377" y2="20.817"><stop offset="0" stop-color="#fff"/><stop offset="1" stop-color="#fff"/></linearGradient><path fill-rule="evenodd" clip-rule="evenodd" fill="url(#esa)" d="M21.5 20.6l-3.6-3.4c1.6-1.6 2.6-3.8 2.6-6.3 0-5-4-9-9-9s-9 4-9 9 4 9 9 9c1.8 0 3.5-.5 4.9-1.4l3.8 3.6 1.3-1.5zM11.4 18c-3.9 0-7-3.1-7-7s3.1-7 7-7 7 3.1 7 7c.1 3.9-3.1 7-7 7z"/></svg><svg id="status1" width="34" height="34" viewBox="-1 -1 34 34" x="204" y="34"><style>.etst0{fill:#0abf5b}</style><path class="etst0" d="M16 0C7.2 0 0 7.2 0 16s7.2 16 16 16 16-7.2 16-16S24.8 0 16 0zm0 30C8.3 30 2 23.7 2 16S8.3 2 16 2s14 6.3 14 14-6.3 14-14 14z"/><path class="etst0" d="M14.7 19.2l-4.3-4.3L9 16.3l5.7 5.7 9.1-9.2-1.4-1.4z"/></svg><svg id="status2" width="34" height="34" viewBox="-1 -1 34 34" x="204"><style>.eust0{fill:#e54545}</style><path id="euXMLID_11_" class="eust0" d="M16 0C7.2 0 0 7.2 0 16s7.2 16 16 16 16-7.2 16-16S24.8 0 16 0zm0 30C8.3 30 2 23.7 2 16S8.3 2 16 2s14 6.3 14 14-6.3 14-14 14z"/><path id="euXMLID_1_" class="eust0" d="M15 9h2v10h-2z"/><path id="euXMLID_7_" class="eust0" d="M15 21h2v2h-2z"/></svg><svg id="status3" width="34" height="34" viewBox="-1 -1 34 34" x="170" y="152"><style>.evst0{fill:#00a4ff}</style><g id="evXMLID_2_"><path id="evXMLID_6_" class="evst0" d="M16 0C7.2 0 0 7.2 0 16s7.2 16 16 16 16-7.2 16-16S24.8 0 16 0zm0 30C8.3 30 2 23.7 2 16S8.3 2 16 2s14 6.3 14 14-6.3 14-14 14z"/><path id="evXMLID_10_" class="evst0" d="M16 8h-2v10h10v-2h-8z"/></g></svg><svg width="34" height="34" viewBox="-1 -1 34 34" id="success" x="136" y="152"><defs><path id="ewa" d="M0 0h32v32H0z"/></defs><g fill="none" fill-rule="evenodd"><mask id="ewb" fill="#fff"><use xlink:href="#ewa"/></mask><path fill="#0ABF5B" d="M16 30C8.268 30 2 23.732 2 16S8.268 2 16 2s14 6.268 14 14-6.268 14-14 14m0-30C7.163 0 0 7.163 0 16c0 8.836 7.163 16 16 16s16-7.164 16-16c0-8.837-7.163-16-16-16" mask="url(#ewb)"/><path fill="#0ABF5B" d="M13.707 18.793L9.414 14.5 8 15.914l5.707 5.707 10.207-10.207L22.5 10z"/></g></svg><svg id="time-1616" viewBox="-1 -1 18 18" width="18" height="18" x="162" y="236"><style>.exst0{fill-rule:evenodd;clip-rule:evenodd;fill:#999}</style><path id="exXMLID_2_" class="exst0" d="M8 2C4.7 2 2 4.7 2 8s2.7 6 6 6 6-2.7 6-6-2.7-6-6-6zm0-2c4.4 0 8 3.6 8 8s-3.6 8-8 8-8-3.6-8-8 3.6-8 8-8zm1 7.6l1.7 1c.5.3.6.9.4 1.4-.3.5-.9.6-1.4.4L7 8.7V5c0-.6.4-1 1-1s1 .4 1 1v2.6z"/></svg><svg id="triangle-down" width="18" height="18" viewBox="-1 -1 18 18" x="144" y="236"><style>.eyst0{fill:#7f7f7f}</style><path class="eyst0" d="M8 11L3 5h10l-5 6z"/></svg><svg id="triangle-up" width="18" height="18" viewBox="-1 -1 18 18" x="126" y="236"><style>.ezst0{fill:#7f7f7f}</style><path class="ezst0" d="M13 11H3l5-6 5 6z"/></svg><svg width="26" height="26" viewBox="-294 384 26 26" id="user-2424-1-inline" x="238" y="26"><path fill="#FFF" d="M-281 385c-6.6 0-12 5.4-12 12s5.4 12 12 12 12-5.4 12-12-5.4-12-12-12zm0 1.6c5.7 0 10.4 4.7 10.4 10.4 0 2.1-.6 4-1.7 5.6-1.1-2.4-3.2-4.3-5.7-5.1 1.1-.9 1.8-2.2 1.8-3.7 0-2.7-2.1-4.8-4.8-4.8s-4.8 2.1-4.8 4.8c0 1.5.7 2.8 1.8 3.7-2.5.8-4.6 2.7-5.7 5.1-1.1-1.6-1.7-3.5-1.7-5.6 0-5.7 4.7-10.4 10.4-10.4zm0 10.4c-1.8 0-3.2-1.4-3.2-3.2 0-1.8 1.4-3.2 3.2-3.2s3.2 1.4 3.2 3.2c0 1.8-1.4 3.2-3.2 3.2zm0 10.4c-3 0-5.7-1.3-7.6-3.3 1-3.2 4-5.5 7.6-5.5 3.5 0 6.5 2.3 7.6 5.5-1.9 2-4.6 3.3-7.6 3.3z"/></svg><svg width="26" height="26" viewBox="-294 384 26 26" id="user-2424-2-inline" x="238"><path fill="#00A4FF" d="M-281 385c-6.6 0-12 5.4-12 12s5.4 12 12 12 12-5.4 12-12-5.4-12-12-12zm0 1.6c5.7 0 10.4 4.7 10.4 10.4 0 2.1-.6 4-1.7 5.6-1.1-2.4-3.2-4.3-5.7-5.1 1.1-.9 1.8-2.2 1.8-3.7 0-2.7-2.1-4.8-4.8-4.8s-4.8 2.1-4.8 4.8c0 1.5.7 2.8 1.8 3.7-2.5.8-4.6 2.7-5.7 5.1-1.1-1.6-1.7-3.5-1.7-5.6 0-5.7 4.7-10.4 10.4-10.4zm0 10.4c-1.8 0-3.2-1.4-3.2-3.2 0-1.8 1.4-3.2 3.2-3.2s3.2 1.4 3.2 3.2c0 1.8-1.4 3.2-3.2 3.2zm0 10.4c-3 0-5.7-1.3-7.6-3.3 1-3.2 4-5.5 7.6-5.5 3.5 0 6.5 2.3 7.6 5.5-1.9 2-4.6 3.3-7.6 3.3z"/></svg><svg width="30" height="30" viewBox="-1 -1 30 30" id="user-black" x="120" y="186"><g fill="#2B303B" fill-rule="evenodd"><path fill-rule="nonzero" d="M19.726 1.22a5.017 5.017 0 0 0-1.248 1.643A11.967 11.967 0 0 0 14 2C7.373 2 2 7.373 2 14s5.373 12 12 12 12-5.373 12-12c0-1.583-.307-3.094-.863-4.478a5.017 5.017 0 0 0 1.642-1.248A13.95 13.95 0 0 1 28 14c0 7.732-6.268 14-14 14S0 21.732 0 14 6.268 0 14 0c2.04 0 3.978.436 5.726 1.22z"/><path fill-rule="nonzero" d="M14 26a11.96 11.96 0 0 0 8.4-3.43A9.996 9.996 0 0 0 14 18a9.996 9.996 0 0 0-8.4 4.57A11.96 11.96 0 0 0 14 26zm0-10a12 12 0 0 1 10.844 6.855A13.972 13.972 0 0 1 14 28a13.972 13.972 0 0 1-10.844-5.145A12.001 12.001 0 0 1 14 16z"/><circle cx="23" cy="5" r="3"/><path fill-rule="nonzero" d="M14 16a4 4 0 1 0 0-8 4 4 0 0 0 0 8zm0 2a6 6 0 1 1 0-12 6 6 0 0 1 0 12z"/></g></svg><svg width="30" height="30" viewBox="-1 -1 30 30" id="user-black-has-msg" x="90" y="186"><g fill="none" fill-rule="evenodd"><path fill="#2B303B" fill-rule="nonzero" d="M19.726 1.22a5.017 5.017 0 0 0-1.248 1.643A11.967 11.967 0 0 0 14 2C7.373 2 2 7.373 2 14s5.373 12 12 12 12-5.373 12-12c0-1.583-.307-3.094-.863-4.478a5.017 5.017 0 0 0 1.642-1.248A13.95 13.95 0 0 1 28 14c0 7.732-6.268 14-14 14S0 21.732 0 14 6.268 0 14 0c2.04 0 3.978.436 5.726 1.22z"/><path fill="#2B303B" fill-rule="nonzero" d="M14 26a11.96 11.96 0 0 0 8.4-3.43A9.996 9.996 0 0 0 14 18a9.996 9.996 0 0 0-8.4 4.57A11.96 11.96 0 0 0 14 26zm0-10a12 12 0 0 1 10.844 6.855A13.972 13.972 0 0 1 14 28a13.972 13.972 0 0 1-10.844-5.145A12.001 12.001 0 0 1 14 16z"/><circle cx="23" cy="5" r="3" fill="#00A4FF"/><path fill="#2B303B" fill-rule="nonzero" d="M14 16a4 4 0 1 0 0-8 4 4 0 0 0 0 8zm0 2a6 6 0 1 1 0-12 6 6 0 0 1 0 12z"/></g></svg><svg width="30" height="30" viewBox="-1 -1 30 30" id="user-icon" x="204" y="136"><g fill="#FFF" fill-rule="evenodd"><path fill-rule="nonzero" d="M19.726 1.22a5.017 5.017 0 0 0-1.248 1.643A11.967 11.967 0 0 0 14 2C7.373 2 2 7.373 2 14s5.373 12 12 12 12-5.373 12-12c0-1.583-.307-3.094-.863-4.478a5.017 5.017 0 0 0 1.642-1.248A13.95 13.95 0 0 1 28 14c0 7.732-6.268 14-14 14S0 21.732 0 14 6.268 0 14 0c2.04 0 3.978.436 5.726 1.22z"/><path fill-rule="nonzero" d="M14 26a11.96 11.96 0 0 0 8.4-3.43A9.996 9.996 0 0 0 14 18a9.996 9.996 0 0 0-8.4 4.57A11.96 11.96 0 0 0 14 26zm0-10a12 12 0 0 1 10.844 6.855A13.972 13.972 0 0 1 14 28a13.972 13.972 0 0 1-10.844-5.145A12.001 12.001 0 0 1 14 16z"/><circle cx="23" cy="5" r="3"/><path fill-rule="nonzero" d="M14 16a4 4 0 1 0 0-8 4 4 0 0 0 0 8zm0 2a6 6 0 1 1 0-12 6 6 0 0 1 0 12z"/></g></svg><svg width="30" height="30" viewBox="-1 -1 30 30" id="user-icon-active" y="186"><g fill="#00a4ff" fill-rule="evenodd"><path fill-rule="nonzero" d="M19.726 1.22a5.017 5.017 0 0 0-1.248 1.643A11.967 11.967 0 0 0 14 2C7.373 2 2 7.373 2 14s5.373 12 12 12 12-5.373 12-12c0-1.583-.307-3.094-.863-4.478a5.017 5.017 0 0 0 1.642-1.248A13.95 13.95 0 0 1 28 14c0 7.732-6.268 14-14 14S0 21.732 0 14 6.268 0 14 0c2.04 0 3.978.436 5.726 1.22z"/><path fill-rule="nonzero" d="M14 26a11.96 11.96 0 0 0 8.4-3.43A9.996 9.996 0 0 0 14 18a9.996 9.996 0 0 0-8.4 4.57A11.96 11.96 0 0 0 14 26zm0-10a12 12 0 0 1 10.844 6.855A13.972 13.972 0 0 1 14 28a13.972 13.972 0 0 1-10.844-5.145A12.001 12.001 0 0 1 14 16z"/><circle cx="23" cy="5" r="3"/><path fill-rule="nonzero" d="M14 16a4 4 0 1 0 0-8 4 4 0 0 0 0 8zm0 2a6 6 0 1 1 0-12 6 6 0 0 1 0 12z"/></g></svg><svg width="30" height="30" viewBox="-1 -1 30 30" id="user-icon-hasmsg" x="30" y="186"><g fill="none" fill-rule="evenodd"><path fill="#FFF" fill-rule="nonzero" d="M19.726 1.22a5.017 5.017 0 0 0-1.248 1.643A11.967 11.967 0 0 0 14 2C7.373 2 2 7.373 2 14s5.373 12 12 12 12-5.373 12-12c0-1.583-.307-3.094-.863-4.478a5.017 5.017 0 0 0 1.642-1.248A13.95 13.95 0 0 1 28 14c0 7.732-6.268 14-14 14S0 21.732 0 14 6.268 0 14 0c2.04 0 3.978.436 5.726 1.22z"/><path fill="#FFF" fill-rule="nonzero" d="M14 26a11.96 11.96 0 0 0 8.4-3.43A9.996 9.996 0 0 0 14 18a9.996 9.996 0 0 0-8.4 4.57A11.96 11.96 0 0 0 14 26zm0-10a12 12 0 0 1 10.844 6.855A13.972 13.972 0 0 1 14 28a13.972 13.972 0 0 1-10.844-5.145A12.001 12.001 0 0 1 14 16z"/><circle cx="23" cy="5" r="3" fill="#00A4FF"/><path fill="#FFF" fill-rule="nonzero" d="M14 16a4 4 0 1 0 0-8 4 4 0 0 0 0 8zm0 2a6 6 0 1 1 0-12 6 6 0 0 1 0 12z"/></g></svg><svg width="30" height="30" viewBox="-1 -1 30 30" id="user-icon-hasmsg-active" x="60" y="186"><g fill="none" fill-rule="evenodd"><path fill="#00a4ff" fill-rule="nonzero" d="M19.726 1.22a5.017 5.017 0 0 0-1.248 1.643A11.967 11.967 0 0 0 14 2C7.373 2 2 7.373 2 14s5.373 12 12 12 12-5.373 12-12c0-1.583-.307-3.094-.863-4.478a5.017 5.017 0 0 0 1.642-1.248A13.95 13.95 0 0 1 28 14c0 7.732-6.268 14-14 14S0 21.732 0 14 6.268 0 14 0c2.04 0 3.978.436 5.726 1.22z"/><path fill="#00a4ff" fill-rule="nonzero" d="M14 26a11.96 11.96 0 0 0 8.4-3.43A9.996 9.996 0 0 0 14 18a9.996 9.996 0 0 0-8.4 4.57A11.96 11.96 0 0 0 14 26zm0-10a12 12 0 0 1 10.844 6.855A13.972 13.972 0 0 1 14 28a13.972 13.972 0 0 1-10.844-5.145A12.001 12.001 0 0 1 14 16z"/><circle cx="23" cy="5" r="3" fill="#00A4FF"/><path fill="#00a4ff" fill-rule="nonzero" d="M14 16a4 4 0 1 0 0-8 4 4 0 0 0 0 8zm0 2a6 6 0 1 1 0-12 6 6 0 0 1 0 12z"/></g></svg><svg id="v-1616" viewBox="-1 -1 18 18" width="18" height="18" x="162" y="254"><style>.fist0{fill-rule:evenodd;clip-rule:evenodd;fill:#999}</style><path id="fiXMLID_2_" class="fist0" d="M2 2v12h12V2H2zm4 3l5 3-5 3V5zM1 0h14c.6 0 1 .4 1 1v14c0 .6-.4 1-1 1H1c-.6 0-1-.4-1-1V1c0-.6.4-1 1-1z"/></svg><svg id="video-close" width="34" height="34" viewBox="-1 -1 34 34" x="34" y="152"><style>.fjst0{fill:#fff}</style><path id="fjXMLID_1_" transform="rotate(45.001 16.021 16)" class="fjst0" d="M15-2.4h2v36.7h-2z"/><path id="fjXMLID_2_" transform="rotate(134.999 16.02 16)" class="fjst0" d="M15-2.4h2v36.7h-2z"/></svg><svg width="34" height="34" viewBox="-1 -1 34 34" id="video-close-#00a4ff" x="34" y="118"><style>.fkst0{fill:#00a4ff}</style><path class="fkst0" d="M28.31 2.267l1.414 1.415-25.95 25.95-1.415-1.414z"/><path class="fkst0" d="M29.754 28.289l-1.415 1.414L2.39 3.753l1.414-1.415z"/></svg><svg id="wechat" viewBox="-1 -1 18 18" width="18" height="18" x="264" y="216"><style>.flst0{fill-rule:evenodd;clip-rule:evenodd;fill:#fff}</style><g id="flXMLID_2_"><g id="flXMLID_50_"><path id="flXMLID_51_" class="flst0" d="M5.7 1C2.5 1 0 3.1 0 5.8c0 1.6.8 2.8 2.3 3.8l-.6 1.7 2-1c.7.1 1.3.3 2 .3h.5C6.1 10.2 6 9.4 6 9c0-1.8 1.7-3.8 4-4 .3 0 1.2-.1 1.4-.1-.5-2.2-3-3.9-5.7-3.9zm-2 3.9c-.4 0-.7-.4-.7-.8s.3-.7.7-.7c.4 0 .8.3.8.7 0 .4-.4.8-.8.8zm4 0c-.4 0-.8-.3-.8-.7 0-.4.3-.7.8-.7.4 0 .8.3.8.7-.1.3-.4.7-.8.7z"/></g></g><path id="flXMLID_19_" class="flst0" d="M12 12l2 2v-2h-2"/><path id="flXMLID_8_" class="flst0" d="M11.5 6C9 6 7 7.6 7 9.5S9 13 11.5 13 16 11.5 16 9.5C16 7.6 14 6 11.5 6zm-2 3c-.3 0-.5-.2-.5-.5s.2-.5.5-.5.5.2.5.5-.2.5-.5.5zm3 0c-.3 0-.5-.2-.5-.5s.2-.5.5-.5.5.2.5.5-.2.5-.5.5z"/></svg><svg id="weibo" viewBox="-1 -1 18 18" width="18" height="18" x="264" y="198"><style>.fmst0{fill:#fff}</style><g id="fmXMLID_2_"><g id="fmXMLID_83_"><path id="fmXMLID_84_" class="fmst0" d="M14.9 2.4c-1.1-1.2-2.6-1.6-4-1.3-.3.1-.5.4-.5.7.1.3.4.5.7.5 1-.2 2.1.1 2.9.9.7.8.9 2 .6 3-.1.3.1.7.4.8.3.1.7-.1.8-.4.4-1.4.2-3-.9-4.2zm-1.8 3.8c.3.1.6-.1.7-.3.2-.7.1-1.5-.4-2-.5-.6-1.3-.8-2-.6-.3.1-.5.3-.4.6.1.3.3.5.6.4.3-.1.7 0 1 .3.3.3.3.7.2 1-.2.2 0 .5.3.6zM12 7.3c-.2-.1-.5-.1-.3-.4.3-.6.4-1.2.1-1.6-.5-.7-1.9-.7-3.6 0 0 0-.5.2-.4-.2.3-.9.2-1.5-.2-1.9-.9-.9-3.2 0-5.2 2.1C.9 6.7 0 8.3 0 9.7 0 12.4 3.4 14 6.7 14c4.4 0 7.2-2.5 7.2-4.5.1-1.3-1-2-1.9-2.2zM6.7 13c-2.6.3-4.9-.9-5.1-2.7C1.4 8.6 3.5 7 6.1 6.7c2.6-.3 4.9.9 5.1 2.7.2 1.7-1.8 3.4-4.5 3.6zM7 8.1c-1.3-.4-2.7.3-3.2 1.4-.6 1.1 0 2.4 1.3 2.8 1.3.4 2.9-.2 3.4-1.5C9 9.6 8.3 8.4 7 8.1zM6 11c-.3.4-.8.6-1.2.4-.4-.2-.5-.7-.3-1.1.3-.4.8-.6 1.2-.4.4.2.6.7.3 1.1zm.9-1.1c-.1.2-.3.2-.5.2-.1-.1-.2-.3-.1-.4.1-.2.3-.2.4-.2.2 0 .3.2.2.4z"/></g></g></svg><svg width="13" height="9" viewBox="-1 -1 13 9" id="xiala" x="98" y="272"><path fill-rule="evenodd" clip-rule="evenodd" fill="#999" d="M10.5 1.4L9.8.6 5.5 4.9 1.2.6l-.7.8 4.3 4.2.7.8v-.1.1l.7-.8z"/></svg></svg>